<?xml version="1.0" encoding="UTF-8" standalone="no"?>
<!DOCTYPE svg PUBLIC "-//W3C//DTD SVG 1.1//EN" "http://www.w3.org/Graphics/SVG/1.1/DTD/svg11.dtd">
<svg xmlns="http://www.w3.org/2000/svg" xmlns:xl="http://www.w3.org/1999/xlink" xmlns:dc="http://purl.org/dc/elements/1.1/" version="1.1" viewBox="0 0 227 227" width="227" height="227">
  <defs>
    <linearGradient x1="0" x2="1" id="Gradient" gradientUnits="userSpaceOnUse">
      <stop offset="0" stop-color="#2096da"/>
      <stop offset=".4999027" stop-color="#107fc3"/>
      <stop offset="1" stop-color="#0067aa"/>
    </linearGradient>
    <linearGradient id="Obj_Gradient" xl:href="#Gradient" gradientTransform="translate(8.30218 97.00081) scale(206.07572)"/>
  </defs>
  <g id="Canvas_1" fill-opacity="1" stroke-opacity="1" stroke="none" fill="none" stroke-dasharray="none">
    <title>Canvas 1</title>
    <g id="Canvas_1_Layer_1">
      <title>Layer 1</title>
      <g id="Graphic_13">
        <path d="M 117.08 222 C 65.74 221.65 20.67 188.49 6.6 140.77 C -10.75 82 23.24 22.6 83.07 8 C 128.23 -3 167.07 9.35 197.75 43.57 C 233.28 83.17 234.95 138.77 204.7 178.8 C 186.34 203.1 161.7 217.03 131.51 221 C 127.8 221.49 124.06 221.71 120.33 222 C 119.26 222 118.16 222 117.08 222 Z M 108.81 9.49 C 105.71 9.49 102.61 9.35 99.52 9.49 C 98.52 9.49 96.52 9.81 97.35 11.43 C 98.69 14.05 100.23 16.84 102.43 18.67 C 104.06 20.04 106.69 18.67 108.83 18.01 L 124 16.34 L 145.48 16.34 C 138.39 12.67 130.92 11.41 123.29 10.84 C 118.38 11.23 113.74 8.82 108.81 9.49 Z M 58.06 23.73 C 45.81 29.94 36.15 39.33 28.06 50.04 C 14.34 68.16 7.84 89 8.3 111.72 C 8.537301 133.27846 15.711453 154.18729 28.76 171.35 C 32.34 176.11 36.02 180.81 40.81 184.64 C 41.40127 183.61767 41.569915 182.40486 41.28 181.26 C 40.75 175.16 42.82 169.93 46.47 165.2 C 47.79 163.49 49.14 161.8 50.56 160.2 C 52.27 158.2 52.43 157.28 49.39 156.3 C 37.15 152.37 27.39 145.21 21.26 133.59 C 21.040476 133.0601 20.630088 132.63186 20.11 132.39 C 14.56 129.92 13.17 125.39 13.72 119.74 C 14.78 108.94 18.08 98.65 20.84 88.25 C 21.42729 86.13462 22.718326 84.28272 24.5 83 C 27.388216 80.81506 29.51258 77.77376 30.57 74.31 C 32.23 69.5 35.57 67.31 40.73 67.23 C 43.26 67.23 45.8 67.17 48.33 67.23 C 52.33 67.35 55.95 66.55 58.77 63.48 C 61.26 63.18 62.32 60.81 64.29 59.71 C 69.69 56.71 71.81 52.02 71.96 45.82 C 72.1 40.08 74.37 35.16 80.14 32.45 C 83.24345 30.86639 86.11933 28.871773 88.69 26.52 C 90.66996 25.06435 91.70073 22.646448 91.38 20.21 C 90.88146 17.06559 91.51962 13.84643 93.18 11.13 C 80.15 13.14 68.6 17 58.06 23.73 Z M 104.29 90.88 C 110.29 90.96 114.69 93.61 118.69 97.03 C 126.03 103.32 127.96 120.79 117.08 126.67 C 107.44 131.89 97.42 135.24 86.29 134.21 L 70.79 132.75 C 58.08 131.54 45.44 129.15 32.56 131.1 C 29.63 131.54 28.82 132.23 30.81 134.68 C 38.75 144.42 48.81 149.91 61.58 149.22 C 74.35 148.53 86.85 146.67 99.48 148.99 C 113.76 151.62 124.88 147.22 132.64 134.77 C 133.64 133.21 134.88 131.57 136.99 132.87 C 139.1 134.17 138.34 135.8 137.25 137.52 C 130.61 148 122.51 156 108.94 155.76 C 106.76654 155.84169 104.59961 156.0487 102.45 156.38 C 100.4662 156.4082 98.6124 157.37218 97.45 158.98 C 94.92 162.79 92.08 166.44 90.45 170.74 C 86.01 182.07 81.66 193.44 77.23 204.74 C 76.23 207.21 76.69 208.59 79.44 209.55 C 91.18405 213.71486 103.53975 215.89469 116 216 C 139.13408 216.33907 161.71033 208.88997 180.1 194.85 C 181.23 194.01 181.87 193.19 181.36 191.85 C 178.22 183.63 180.43 175.74 182.65 167.78 C 184.47 161.25 185.65 154.63 184.5 147.78 C 183.35 140.93 183.39 140.89 177.87 144.56 C 173.11 147.73 167.76 149.65 162.46 151.63 C 160.46 152.36 157.6 152.73 156.84 150.87 C 155.84 148.33 159.04 148.34 160.57 147.59 C 164.9 145.47 169.85 144.45 173.57 141.42 C 183.47 133.42 188.16 122.52 189.91 110.24 C 190.71 104.63 190.91 98.95 191.44 93.3 C 191.53 92.22 191.64 91.08 193.2 91.08 C 194.76 91.08 194.71 92.34 194.81 93.36 C 194.89 94.2 194.81 95.05 194.81 95.89 C 195.21 109.15 192.35 122.05 190.31 135.02 C 188.16 148.62 189.6 161.95 192.57 175.23 C 192.94 176.89 193.67 178.87 195.04 179.3 C 196.94 179.9 197.63 177.58 198.61 176.3 C 207.8988 164.2015 214.2615 150.11733 217.2 135.15 C 219.62 123.44 219.3 112.33 213.2 101.5 C 208.91 93.86 205.09 85.93 200.91 78.19 C 192.25 62.13 179.99 48.77 168.51 34.84 C 165.01 30.59 161.17 26.48 156.13 23.84 C 155.41 23.47 154.67 22.65 153.82 23.09 C 152.65 23.71 153.35 24.88 153.55 25.68 C 155.11 32.02 149.45 39.19 143.31 41.31 C 141.93 41.79 140.22 42.48 139.41 40.9 C 138.6 39.32 140.41 38.81 141.41 37.99 C 145.54 34.45 147.83 28.57 146.79 23.99 C 143.79 25.42 141.2 27.2 139.7 30.34 C 139.03 31.72 138.08 34.18 136.42 33.27 C 134.42 32.14 135.52 29.82 136.59 28.14 C 137.54783 26.599152 138.82277 25.279904 140.33 24.27 C 141.89 23.27 143.94 23.06 145.49 21.46 C 143.76943 20.507114 141.81334 20.06318 139.85 20.18 C 128.51 20.33 117.14 20.1 105.93 22.36 C 102.38 23.08 98.78 23.82 95.93 26.36 C 91.91789 30.020807 87.45118 33.14986 82.64 35.67 C 80.64 36.67 78.64 37.88 79.36 40.59 C 80.08 43.3 82.05 44.36 84.62 44.71 C 85.62 44.85 87.02 44.51 87.32 45.93 C 87.62 47.35 86.32 47.74 85.48 48.37 C 78.26667 54.03 71.17667 59.83667 64.21 65.79 C 59.69803 69.728716 53.843604 71.78045 47.86 71.52 C 45.45 71.44 43.03 71.52 40.61 71.52 C 34.94 71.52 33.7 73.25 35.22 78.72 C 35.79 80.72 35.97 82.84 34.15 84.42 C 32.33 86 30.44 85.85 28.59 84.36 C 27.59 83.58 26.92 83.93 26.17 84.84 C 24.49 86.84 24.81 88.37 27.44 89.06 C 32.11 90.28 35.55 87.86 38.76 84.92 C 39.45 84.28 40.19 83.24 41.2 83.92 C 42.21 84.6 41.57 85.72 41.14 86.55 C 39.14 90.46 31.26 94.64 26.84 94.07 C 25.66 93.92 25.05 94.07 24.75 95.28 C 22.89 102.88 20.39 110.35 19.81 118.21 C 19.23 126.07 21 127.84 29 126 C 42 123 54.88 122.13 67.93 126.2 C 74.93 128.4 82.5 128.58 89.86 127.8 C 98.52 126.89 107.08 125.38 114.31 119.89 C 117.09069 117.90809 118.84884 114.7947 119.11 111.39 C 119.6 106.28 117.25 102.55 113.79 99.3 C 110.84 96.56 107.73 93.92 104.29 90.88 Z M 77.93 153.3 L 77.93 153.42 C 76.72 153.34 75.52 153.2 74.32 153.19 C 68.77 153.14 63.05 152.71 58.81 157.32 C 53.59 163 49.47 169.35 48 177 C 45.71 189.08 47.38 192.44 58 198.71 L 61.42 200.71 C 69.97 205.77 69.97 205.77 73.12 196.48 C 74.58 192.18 73.53 189.08 69.69 186.57 C 68.79 185.98 67.75 185.62 66.8 185.1 C 65.85 184.58 65.08 183.94 65.28 182.87 C 65.42012 181.86545 66.18395 181.06142 67.18 180.87 C 70.49 180.42 73.86 179.34 77.18 180.52 C 78.88 181.13 79.58 180.63 80.18 179.23 C 83.7 171.58333 87.23667 163.94333 90.79 156.31 C 91.53 154.73 91.12 154.15 89.43 154.06 C 85.62 153.88 81.77 153.57 77.93 153.3 Z M 168.93 28.15 C 187.12004 46.715017 202.42653 67.90007 214.34 91 C 215.59 74.17 185.62 32.66 169 28.15 Z" fill="#060606"/>
      </g>
      <g id="Graphic_14">
        <path d="M 104.29 90.88 C 107.73 93.88 110.84 96.56 113.81 99.35 C 117.27 102.6 119.62 106.35 119.13 111.44 C 118.86884 114.8447 117.11069 117.95809 114.33 119.94 C 107.1 125.43 98.54 126.94 89.88 127.85 C 82.52 128.63 75 128.45 67.95 126.25 C 55 122.18 42 123 29 126.05 C 21 127.9 19.24 126.34 19.84 118.32 C 20.42 110.46 22.92 102.99 24.78 95.39 C 25.08 94.15 25.69 94.03 26.87 94.18 C 31.29 94.75 39.14 90.57 41.17 86.66 C 41.6 85.83 42.17 84.72 41.23 84.03 C 40.29 83.34 39.48 84.34 38.79 85.03 C 35.58 87.97 32.14 90.39 27.47 89.17 C 24.84 88.48 24.52 86.99 26.2 84.95 C 26.95 84.04 27.66 83.69 28.62 84.47 C 30.47 85.96 32.36 86.12 34.18 84.53 C 36 82.94 35.82 80.86 35.25 78.83 C 33.73 73.36 34.97 71.67 40.64 71.63 C 43.06 71.63 45.48 71.56 47.89 71.63 C 53.873604 71.89045 59.72803 69.838716 64.24 65.9 C 71.22 59.95333 78.31 54.146667 85.51 48.48 C 86.32 47.85 87.62 47.35 87.35 46.04 C 87.08 44.73 85.67 44.96 84.65 44.82 C 82.08 44.47 80.09 43.26 79.39 40.7 C 78.69 38.14 80.7 36.81 82.67 35.78 C 87.49697 33.249604 91.97729 30.106995 96 26.43 C 98.8 23.89 102.4 23.15 106 22.43 C 117.21 20.17 128.58 20.43 139.92 20.25 C 141.88334 20.13318 143.83943 20.577114 145.56 21.53 C 144.01 23.13 141.96 23.29 140.4 24.34 C 138.89277 25.349904 137.61783 26.669152 136.66 28.21 C 135.59 29.89 134.46 32.21 136.49 33.34 C 138.15 34.25 139.1 31.79 139.77 30.41 C 141.27 27.27 143.83 25.49 146.86 24.06 C 147.86 28.62 145.61 34.5 141.48 38.06 C 140.53 38.88 138.69 39.42 139.48 40.97 C 140.27 42.52 142 41.86 143.38 41.38 C 149.52 39.26 155.18 32.09 153.62 25.75 C 153.42 24.95 152.72 23.75 153.89 23.16 C 154.74 22.72 155.48 23.54 156.2 23.91 C 161.2 26.51 165.08 30.62 168.58 34.91 C 180.06 48.84 192.32 62.2 201 78.26 C 205.18 86 209 93.93 213.29 101.57 C 219.36 112.4 219.68 123.51 217.29 135.22 C 214.3515 150.18733 207.9888 164.2715 198.7 176.37 C 197.7 177.63 197.03 179.95 195.13 179.37 C 193.76 178.94 193.03 176.96 192.66 175.3 C 189.66 162.02 188.25 148.69 190.4 135.09 C 192.4 122.09 195.3 109.22 194.9 95.96 C 194.955 95.11756 194.955 94.27244 194.9 93.43 C 194.8 92.43 194.95 91.14 193.29 91.15 C 191.63 91.16 191.62 92.29 191.53 93.37 C 191.02 99.02 190.8 104.7 190 110.31 C 188.25 122.59 183.56 133.52 173.66 141.49 C 169.9 144.49 164.95 145.49 160.66 147.66 C 159.13 148.41 155.9 148.4 156.93 150.94 C 157.69 152.8 160.59 152.43 162.55 151.7 C 167.85 149.7 173.2 147.8 177.96 144.63 C 183.48 140.96 183.44 141 184.59 147.85 C 185.74 154.7 184.59 161.33 182.74 167.85 C 180.52 175.85 178.31 183.7 181.45 191.92 C 181.96 193.25 181.32 194.07 180.19 194.92 C 161.768 208.95627 139.15689 216.38176 116 216 C 103.5485 215.90793 91.19937 213.7416 79.46 209.59 C 76.71 208.59 76.28 207.25 77.25 204.78 C 81.68 193.45 86.03 182.08 90.47 170.78 C 92.15 166.48 94.99 162.78 97.47 159.02 C 98.6324 157.41218 100.4862 156.4482 102.47 156.42 C 104.61961 156.0887 106.78654 155.88169 108.96 155.8 C 122.53 156.08 130.63 148 137.27 137.56 C 138.36 135.84 139.07 134.18 137.01 132.91 C 134.95 131.64 133.63 133.25 132.66 134.81 C 125 147.26 113.83 151.66 99.55 149 C 86.92 146.68 74.29 148.55 61.65 149.23 C 49.01 149.91 38.82 144.43 30.88 134.69 C 28.88 132.24 29.7 131.55 32.63 131.11 C 45.51 129.16 58.15 131.55 70.86 132.76 L 86.36 134.22 C 97.49 135.22 107.51 131.9 117.15 126.68 C 128 120.79 126 103.32 118.69 97 C 114.69 93.61 110.3 91 104.29 90.88 Z M 119.66 46.45 C 114.66 46.39 108.12 49.59 105.09 53.45 C 104.29936 54.21643 104.12292 55.418716 104.66 56.38 C 105.37 57.55 106.39 56.9 107.13 56.38 C 108.44 55.38 108.74 56.65 109.38 57.22 C 113.54 61 119 60 121.32 55 C 122.15 53.22 121.66 50.74 124.44 50 C 125.16 49.8 124.9 48.35 123.77 47.75 C 122.50376 47.04084 121.10437 46.60162 119.66 46.46 Z M 64.46 100.66 C 67.66 100.08 70.46 99.15 72.24 96.41 C 73.11329 95.33924 73.04888 93.78484 72.09 92.79 C 71.09 91.67 70.17 91.79 68.91 92.39 C 67.23381 93.33719 65.41788 94.01225 63.53 94.39 C 58.92 94.95 54.15 95.69 50.67 91.27 C 49.94 90.34 49.27 88.51 47.76 89.45 C 46.25 90.39 47.82 91.83 48.05 93 C 48.2 93.73 49.05 94.34 49.52 95 C 53.46 99.76 59.4 99.21 64.46 100.66 Z M 58.76 79.9 C 56.49 80.21 54.01 80.34 53.67 83.35 C 53.42 85.65 57.35 90.98 59.22 91.13 C 61.09 91.28 63.48 88.37 63.45 85.71 C 63.45 82.42 61.45 79.94 58.76 79.9 Z" fill="#f5f5f5"/>
      </g>
      <g id="Graphic_15">
        <path d="M 77.93 153.3 C 81.77 153.57 85.62 153.88 89.47 154.1 C 91.16 154.19 91.57 154.77 90.83 156.35 C 87.26333 163.97 83.72667 171.61 80.22 179.27 C 79.58 180.67 78.88 181.17 77.22 180.56 C 73.92 179.38 70.55 180.46 67.22 180.91 C 66.22395 181.10142 65.46012 181.90545 65.32 182.91 C 65.12 183.98 65.97 184.66 66.84 185.14 C 67.71 185.62 68.84 186.02 69.73 186.61 C 73.57 189.12 74.62 192.22 73.16 196.52 C 70.01 205.81 70.01 205.81 61.46 200.75 L 58.04 198.75 C 47.4 192.45 45.73 189.09 48.04 177 C 49.49 169.34 53.61 163 58.82 157.31 C 63.06 152.7 68.82 153.13 74.33 153.18 C 75.53 153.18 76.73 153.33 77.94 153.41 Z" fill="#f5f5f5"/>
      </g>
      <g id="Graphic_16">
        <path d="M 93.18 11.12 C 91.51962 13.83643 90.88146 17.05559 91.38 20.2 C 91.70073 22.636448 90.66996 25.05435 88.69 26.51 C 86.11933 28.861773 83.24345 30.85639 80.14 32.44 C 74.37 35.15 72.14 40.07 71.96 45.81 C 71.81 52 69.69 56.7 64.29 59.7 C 62.29 60.8 61.29 63.17 58.77 63.47 C 55.95 66.54 52.32 67.34 48.33 67.22 C 45.8 67.14 43.26 67.22 40.73 67.22 C 35.6 67.22 32.23 69.49 30.57 74.3 C 29.516335 77.76832 27.391432 80.81389 24.5 83 C 22.70981 84.27405 21.410848 86.12366 20.82 88.24 C 18.06 98.64 14.76 108.93 13.7 119.73 C 13.15 125.33 14.54 129.91 20.09 132.38 C 20.610088 132.62186 21.020476 133.0501 21.24 133.58 C 27.34 145.2 37.13 152.36 49.37 156.29 C 52.37 157.29 52.25 158.21 50.54 160.19 C 49.12 161.83 47.77 163.52 46.45 165.19 C 42.8 169.92 40.73 175.19 41.26 181.25 C 41.549915 182.39486 41.38127 183.60767 40.79 184.63 C 36 180.8 32.32 176.1 28.79 171.34 C 15.741453 154.17729 8.567301 133.26846 8.33 111.71 C 7.82 89 14.32 68.16 28 50 C 36.11 39.29 45.77 29.9 58 23.69 C 68.6 17 80.15 13.14 93.18 11.12 Z M 168.96 28.12 C 187.14128 46.696724 202.43763 67.89184 214.34 91 C 215.59 74.17 185.62 32.66 169 28.15 Z M 108.81 9.49 C 105.71 9.49 102.61 9.35 99.52 9.49 C 98.52 9.49 96.52 9.81 97.35 11.43 C 98.69 14.05 100.23 16.84 102.43 18.67 C 104.06 20.04 106.69 18.67 108.83 18.02 L 124 16.34 L 145.48 16.34 C 138.39 12.67 130.92 11.41 123.29 10.84 C 118.38 11.23 113.74 8.82 108.81 9.49 Z" fill="url(#Obj_Gradient)"/>
      </g>
      <g id="Graphic_17">
        <path d="M 119.66 46.45 C 121.0989 46.57192 122.49761 46.98711 123.77 47.67 C 124.9 48.27 125.16 49.67 124.44 49.92 C 121.66 50.7 122.15 53.18 121.32 54.92 C 119.01 59.92 113.54 60.92 109.38 57.15 C 108.74 56.58 108.44 55.31 107.13 56.31 C 106.39 56.87 105.37 57.52 104.66 56.31 C 104.12292 55.348716 104.29936 54.14643 105.09 53.38 C 108.12 49.59 114.64 46.39 119.66 46.45 Z" fill="#060606"/>
      </g>
      <g id="Graphic_18">
        <path d="M 64.46 100.66 C 59.4 99.21 53.46 99.76 49.52 94.94 C 49 94.29 48.2 93.68 48.05 92.94 C 47.82 91.77 46.23 90.33 47.76 89.39 C 49.29 88.45 49.94 90.28 50.67 91.21 C 54.15 95.63 58.92 94.89 63.53 94.33 C 65.41788 93.95225 67.23381 93.27719 68.91 92.33 C 70.17 91.72 71.13 91.61 72.09 92.73 C 73.04888 93.72484 73.11329 95.27924 72.24 96.35 C 70.44 99.15 67.66 100.08 64.46 100.66 Z" fill="#060606"/>
      </g>
      <g id="Graphic_19">
        <path d="M 58.76 79.9 C 61.41 79.9 63.42 82.42 63.45 85.71 C 63.45 88.37 61.21 91.28 59.22 91.13 C 57.23 90.98 53.42 85.65 53.67 83.35 C 54 80.34 56.49 80.21 58.76 79.9 Z" fill="#060606"/>
      </g>
    </g>
  </g>
</svg>
