<svg version="1.1" xmlns="http://www.w3.org/2000/svg" viewBox="0 0 1213.6782815002462 653.2586457265807" width="2427.3565630004923" height="1306.5172914531613">
  <!-- svg-source:excalidraw -->

  <defs>
    <style class="style-fonts">
      @font-face {
        font-family: "Virgil";
        src: url("https://excalidraw.com/Virgil.woff2");
      }
      @font-face {
        font-family: "Cascadia";
        src: url("https://excalidraw.com/Cascadia.woff2");
      }
    </style>

  </defs>
  <rect x="0" y="0" width="1213.6782815002462" height="653.2586457265807" fill="#ffffff"></rect><g stroke-linecap="round" transform="translate(10 12.344852055779484) rotate(0 128.40830863147858 50.37502103976203)"><path d="M-1.58 0.25 C66.17 1.37, 131.18 2.24, 256.84 1.23 M-0.73 0.59 C86.79 -0.4, 173.4 0.21, 257 -0.53 M254.97 -1.41 C256.52 40.12, 258.21 77.16, 256.03 98.88 M256.22 -0.22 C258.21 36.33, 258.14 72.34, 257.22 101.18 M258.41 101.27 C158.51 98.53, 59.87 100.21, -1.11 100.54 M256.7 101.39 C194.45 98.2, 133.28 98.51, 0.23 100.98 M-0.7 100.52 C1.26 75.6, -0.15 49.99, -0.66 1.87 M-0.26 101.55 C0.68 64.43, -0.57 28.71, 0.63 -0.79" stroke="#1e1e1e" stroke-width="1" fill="none"></path></g><g transform="translate(95.61533988147858 51.219873095541516) rotate(0 42.79296875 11.5)"><text x="42.79296875" y="0" font-family="Helvetica, Segoe UI Emoji" font-size="20px" fill="#1e1e1e" text-anchor="middle" style="white-space: pre;" direction="ltr" dominant-baseline="text-before-edge">Service A</text></g><g stroke-linecap="round" transform="translate(498.6699926596466 13.752287381613314) rotate(0 128.40830863147858 50.37502103976203)"><path d="M0 0 C0 0, 0 0, 0 0 M0 0 C0 0, 0 0, 0 0 M0.33 5.92 C1.06 4.17, 4.4 2.42, 5.47 0.15 M0.09 6.25 C1.24 4.21, 2.56 2.55, 5.38 0.12 M1.33 10.94 C3.04 7.9, 8.75 2.64, 11.83 1.18 M0.48 12.74 C3.9 7.43, 7.88 2.21, 10.5 -0.2 M1.47 17.81 C5.89 10.91, 10.47 2.97, 16.1 -0.91 M-0.04 17.74 C2.54 14.97, 6.67 9.68, 15.95 -0.57 M0.73 25.23 C7.3 16.82, 14.7 11.09, 20.29 0.65 M0.74 23.36 C7.94 14.16, 16.86 4.2, 21.38 0.33 M0.31 32.06 C8.25 20.28, 19.92 6.79, 24.43 0.03 M0.8 30.03 C9.85 18.11, 19.21 7.89, 26.33 -0.25 M-1.77 35.06 C11.53 21.83, 22.49 6.97, 30.62 1.37 M-0.24 35.91 C6.71 28.58, 12.98 21.85, 31.45 0.45 M-0.69 41.29 C7.61 32.71, 18.42 21.1, 37.8 -0.51 M0.2 43.22 C8.2 34.1, 15.85 24.09, 36.42 0.56 M0.8 48.73 C11.96 34.86, 25.71 20.2, 42.52 0.2 M0.88 48.25 C10.2 36.59, 20.18 24.45, 42.36 -0.67 M0.62 55.33 C16.59 36.62, 32.69 15.95, 49.39 0.75 M0.47 53.92 C11.05 44.17, 19.42 33.53, 47.77 0.98 M-0.29 59.51 C18.86 39.37, 33.31 19.06, 51.93 -1.86 M-0.42 61.63 C15.2 45.22, 29.67 28.67, 52.98 0.48 M-1.72 69.17 C22.89 42.36, 43.04 15.71, 58.94 1.54 M0.46 67.78 C13.98 50.54, 29.05 34.24, 58.1 -0.6 M1.45 74.38 C17.06 55.18, 30.59 38.62, 63.38 0.62 M0.26 73.83 C24.46 46.12, 48.32 18.41, 63.43 -0.31 M0.89 79.99 C25.73 50.13, 47.03 20.37, 68.74 1.99 M0.22 78.44 C19.64 56.31, 37.29 35.11, 69.4 -0.48 M-0.93 86.73 C16.85 66.46, 31.67 47.15, 73.95 1.5 M-0.52 85.91 C29.96 52.17, 59.07 18.49, 75.03 -0.95 M-0.39 91.65 C22.11 67.77, 39.15 46.21, 79.68 0.69 M-0.97 92.11 C22.5 68.32, 43.38 43.99, 79.84 0.29 M-0.48 97.16 C30.96 61.13, 61.32 28.12, 85.28 -0.9 M-0.58 96.96 C20.58 73.09, 42.19 49.54, 84.32 -1.11 M0.16 102.21 C23.71 76.66, 49.53 47.23, 91.16 -1.32 M1.38 101.02 C35.36 62.34, 70.02 23.75, 89.83 -0.04 M4.87 102.89 C39.7 67.18, 66.74 32.72, 95.6 0.16 M6.97 101.54 C26.45 77.34, 49.26 52.84, 95.07 -0.14 M11.36 102.61 C34.64 77.49, 56.23 53.84, 101.18 -0.58 M11.53 102.1 C35.65 75.45, 59.03 47.71, 100 0.06 M16.57 100.4 C47.33 67.69, 73.63 33.94, 107.66 -0.14 M16.1 102.33 C50.49 64.71, 83.19 26.92, 106.26 -1.12 M21.56 103.84 C43.27 77.9, 65.18 52.53, 110.3 0.8 M21.91 102.23 C53.73 66.64, 83.68 32.89, 111.17 -0.61 M25.97 101.38 C63.02 62.05, 97.89 20.57, 116.14 -1.42 M28.34 102.04 C60.4 63.97, 92.23 26.71, 115.44 -0.11 M32.83 102.77 C62.06 70, 92.08 36.63, 121.62 -0.83 M33.34 101.98 C58.29 74.12, 83.77 44.02, 122.42 0.03 M38.96 103.41 C74.62 63.08, 106.61 26.06, 126.25 -1.14 M37.37 102.13 C62.87 71.97, 89.72 40.77, 127.33 0.87 M43.83 100.72 C65.26 77.77, 82.94 55.87, 132.83 1.31 M43.85 102.19 C61.97 82.62, 79.96 61.7, 133.02 -0.63 M47.95 102.53 C66.4 81.47, 83.53 60.07, 137.8 1.96 M49.1 101.34 C81.22 67.24, 111.14 32.21, 137.92 0.32 M53.75 103.42 C73.44 76.97, 95.15 54.39, 144.15 0.42 M54.73 102 C75.82 77.96, 94.82 55.76, 142.47 0.05 M59.93 101.18 C89.42 67.22, 115.56 36.13, 147.79 0.81 M59.65 101.7 C81.05 76.85, 103.71 53.46, 149.07 0.3 M66.37 101.07 C93.03 73.02, 116.5 42.53, 154.4 0.16 M64.44 100.84 C91.71 70.89, 119.51 39.49, 154.49 0 M68.46 100.28 C97.24 69.77, 128.36 34.68, 157.83 0.78 M69.36 102.53 C90.88 79.14, 109.36 57.47, 157.84 1.13 M74.02 100.27 C93.93 83.27, 112.42 62.7, 164.94 -1.38 M76.7 102.39 C98.36 78.53, 117.83 53.03, 165 0.44 M81.65 103.17 C109.92 71.9, 134.3 38.33, 170.04 -0.32 M80.79 102.4 C105.13 74.67, 128.81 48.05, 168.54 -0.6 M85.6 100.1 C114.42 68.44, 141.86 35.31, 175.7 0.33 M86.41 102.64 C106.23 77.83, 126.22 55.75, 174.17 -0.14 M90.17 103.61 C116.81 70.33, 142.13 41.62, 179.15 -0.26 M90.72 101.18 C115.77 75.12, 139 48.48, 180.68 0 M98.56 100.03 C117.07 77.37, 141.1 50.2, 185.16 0.24 M97.71 101.85 C124.77 71.16, 151.91 38.96, 186.37 0.04 M103.27 101.83 C120.73 79.79, 141.17 55, 192.41 -0.34 M102.15 102.04 C124.21 75.37, 148.62 49.18, 190.99 0.11 M106.93 100.01 C128.92 77.86, 151.99 50.77, 194.37 -0.24 M107.97 102.55 C140.04 65.04, 174.48 26.6, 196.19 0.03 M112.75 100.48 C145.26 62.89, 179.95 26.05, 201.67 -1.44 M112.29 101.39 C133.51 79.42, 150.66 58.03, 201.42 -0.84 M116.64 101.16 C145.98 66.54, 175.79 33.18, 206.96 -1.27 M117.11 102.33 C144.2 71.07, 171.35 41.64, 206.43 0.17 M124.96 100.64 C152.12 67.13, 183.15 34.33, 211.32 -0.01 M122.58 100.96 C141.92 80.28, 159.67 59.84, 211.15 0.9 M128.13 102.78 C147.39 78.99, 168.66 57.9, 217.09 -0.58 M128.22 102.78 C146.93 80.04, 165.98 58.7, 218.13 0.09 M132.85 101.84 C153.62 79.53, 170.2 59.73, 222.31 -0.06 M134.68 101.73 C155.53 76.04, 178.64 50.84, 222.55 -0.69 M140.47 102.87 C173.26 61.06, 207.51 24.77, 229.51 -1.44 M139.67 102.04 C163.25 73.78, 189.47 44.69, 228.54 -1.32 M143.89 102.05 C163.1 78.04, 182.4 58.65, 232.17 -1.15 M144.45 101.99 C169.92 72.42, 196.69 41.2, 233.23 0.71 M149.92 103.11 C180.11 69.81, 208.03 35.68, 238.86 0.03 M149.69 101.78 C173.2 73.56, 199.32 43.59, 238.46 0.88 M156.15 101.66 C185.61 68.31, 218.11 33.56, 242.98 1.59 M155.99 101.29 C174.36 80.47, 193.3 58.75, 244.03 -0.34 M161.32 101.62 C179.88 79.42, 199.54 54.98, 248.32 -0.07 M159.73 101.94 C179.79 80.4, 199.98 58.07, 248.9 0.64 M166.22 103.52 C187.74 75.68, 206.58 52.92, 253.38 1.47 M165.6 102.47 C200.87 61.45, 234.42 20.74, 254.98 -0.98 M172.06 100.96 C188.6 77.85, 210.24 57.89, 256.35 0.55 M170.46 102.76 C201.14 68.17, 229.1 34.59, 257.78 0.97 M177.3 100.9 C202.35 72.79, 227.21 43.37, 260.03 7.78 M175.82 101.64 C207.86 65.89, 237.77 30.31, 258.79 7.46 M180.09 104.12 C205.62 76.69, 227.73 49.84, 258.06 13.4 M181.77 102.74 C205.17 75.89, 228.93 47.92, 257.36 12.96 M187.11 101.51 C207.69 75.99, 230.07 54.42, 257.31 19.68 M187.4 102.22 C202.57 83.82, 217.9 68.09, 258.57 19.39 M191.95 102.54 C210.62 80.35, 228.64 61.82, 260.19 24.82 M192.76 102.68 C206.47 86.93, 220.26 70.47, 259.16 25.35 M195.97 103.51 C210.72 85.18, 222.12 74.55, 256.85 32.02 M197.29 100.88 C213.71 82.64, 230.55 63.3, 257.29 32.73 M202.71 100.08 C225.15 77.6, 243.02 57.15, 258.86 38.15 M203.76 101.64 C224.61 78.19, 246.64 53.44, 257.75 38.72 M206.73 103.49 C220.06 89.23, 229.78 74.7, 256.84 42.35 M208.69 101.58 C223.23 85.81, 238.6 68.94, 259.19 43.94 M212.02 101.06 C224.04 90.63, 232.5 79.7, 256.73 51.17 M214.31 102.99 C229.43 82.95, 246.32 63.24, 257.9 50.94 M220.83 100.47 C228.86 92.95, 235.61 80.98, 258.1 54.92 M218.99 101.57 C231.6 89.07, 243.18 74.92, 257.75 56.06 M224.09 102.22 C236.23 88.82, 245.86 76.96, 258.4 60.84 M223.18 102.35 C235.65 88.05, 247.95 74.25, 257.96 61.93 M229.59 100.67 C235.26 96.51, 241.83 86.87, 258.64 69.66 M229.17 102.14 C236.71 93.93, 244.37 83.84, 258.32 67.6 M235.68 100.74 C244.15 93.23, 249.27 85.92, 256.98 76.3 M234.35 101.65 C241.44 93.7, 249.61 83.91, 258.44 74.6 M240.88 102.48 C247.34 96.67, 252.16 86.65, 257.04 78.94 M240.38 101.57 C245 96.51, 250.99 90.28, 259.49 81.41 M244.13 102.24 C249.74 98.52, 249.9 97.41, 258.18 87.41 M245.02 101.08 C250.5 96.58, 255.26 91.86, 258.14 87.41 M250.81 101.52 C251.85 100.06, 253.77 97.38, 259.14 92.68 M250.13 101.94 C253.44 99.11, 255.6 95.25, 258.29 93.3" stroke="#b2f2bb" stroke-width="0.5" fill="none"></path><path d="M-0.27 1.4 C80.99 0.55, 162.55 -1.01, 257.11 -1.45 M-0.6 0.58 C96.2 -0.45, 192.72 0.06, 256.43 -0.74 M258.25 -0.79 C255.9 21.24, 257.84 47.42, 257.13 99.56 M257.53 0.19 C258.01 28.4, 258.45 56.43, 256.2 101.74 M256.86 101.48 C170.39 99.32, 85.24 98.29, -1.49 100.52 M256.99 100.43 C159.75 99.34, 61.79 98.35, 0.13 100.47 M-1.1 99.66 C-0.82 73.55, 1.05 42.34, 0.32 -0.51 M-0.7 101.27 C0.08 61.69, -1.21 23.25, 0.97 -0.22" stroke="#1e1e1e" stroke-width="1" fill="none"></path></g><g transform="translate(584.2853325411252 52.627308421375346) rotate(0 42.79296875 11.5)"><text x="42.79296875" y="0" font-family="Helvetica, Segoe UI Emoji" font-size="20px" fill="#1e1e1e" text-anchor="middle" style="white-space: pre;" direction="ltr" dominant-baseline="text-before-edge">Service B</text></g><g stroke-linecap="round" transform="translate(134.81586863378834 89.66348285113781) rotate(0 69.11967025864533 17.84518909375356)"><path d="M0.99 -0.89 L138.59 -0.28 L138.93 36.24 L1.6 35.68" stroke="none" stroke-width="0" fill="#ffec99"></path><path d="M1.45 0.47 C36.54 2.77, 75.66 0.08, 136.39 -1.41 M-0.39 -0.39 C38.7 -0.41, 79.87 -0.83, 137.65 -0.22 M138.62 0.8 C139.19 15.19, 139.3 25.81, 140.22 36.33 M138.69 -0.69 C137.9 10.53, 137.26 21.31, 138.1 36.48 M137.44 36.27 C106.14 34.91, 71.03 36.29, -0.7 35.46 M137.69 35.36 C95.59 35.53, 50.93 35.09, -0.26 36.49 M1.05 36.94 C-1.58 21.71, -1.91 12.31, -0.43 0.67 M-0.53 35.08 C0.39 23.08, 0.6 11.18, -0.13 -0.72" stroke="#1e1e1e" stroke-width="1" fill="none"></path></g><g transform="translate(159.46678889243412 98.3086719448911) rotate(0 44.46875 9.199999999999818)"><text x="44.46875" y="0" font-family="Helvetica, Segoe UI Emoji" font-size="16px" fill="#1e1e1e" text-anchor="middle" style="white-space: pre;" direction="ltr" dominant-baseline="text-before-edge">otel exporter</text></g><g stroke-linecap="round" transform="translate(620.5292619938391 85.11687797981813) rotate(0 69.11967025864533 17.84518909375356)"><path d="M0.69 0.55 L139.84 -0.01 L138.75 35.21 L1.82 36.27" stroke="none" stroke-width="0" fill="#ffec99"></path><path d="M-0.07 -0.95 C42.85 -2.61, 89.13 -0.06, 139.67 -0.79 M0.6 0.16 C35.47 -1.03, 72.91 -0.55, 138.96 0.19 M139.21 -1.23 C140.37 12.77, 138.62 23.08, 138.29 36.6 M137.47 -0.93 C138.05 9.03, 137.55 15.68, 138.45 35.29 M136.35 36 C92.09 34.72, 47.65 34.64, -1.1 34.6 M138.11 35.85 C101.1 37.32, 65.02 36.49, -0.7 36.21 M-1.92 37.62 C-0.15 23.42, 1.05 10.08, -1.23 -1.05 M0.65 35.34 C-0.28 26.46, 0.34 18.22, 0.18 -0.14" stroke="#1e1e1e" stroke-width="1" fill="none"></path></g><g transform="translate(645.1801822524849 93.76206707357142) rotate(0 44.46875 9.199999999999818)"><text x="44.46875" y="0" font-family="Helvetica, Segoe UI Emoji" font-size="16px" fill="#1e1e1e" text-anchor="middle" style="white-space: pre;" direction="ltr" dominant-baseline="text-before-edge">otel exporter</text></g><g stroke-linecap="round" transform="translate(1015.2924277964921 14.085227311872586) rotate(0 61.27713255163326 135.8168178663891)"><path d="M0 0 C0 0, 0 0, 0 0 M0 0 C0 0, 0 0, 0 0 M-0.06 7.05 C2.47 3.39, 3.37 1.87, 5.19 0.45 M-0.33 6.28 C1.83 4.44, 3.53 1.78, 4.91 -0.04 M-0.93 13.22 C4.41 8.02, 5.84 4.91, 9.03 -0.84 M-0.17 12.11 C3.68 7.64, 6.22 4.83, 10.27 -0.42 M-1.83 18.39 C5.75 13.55, 10.97 6.44, 17.06 2.03 M-0.81 19.05 C4.24 13.01, 6.85 9.03, 15.26 -0.11 M-0.48 25.92 C7.02 17.95, 11.3 10.5, 20.88 -0.3 M0.54 25.04 C5.48 18.4, 8.89 13.32, 20.32 0.86 M1.66 31.2 C6.74 19.14, 16.02 10.99, 24.49 -0.95 M0.06 30.04 C6.01 22.6, 12.4 15.8, 25.92 0.76 M1.31 38.2 C6.95 26.3, 14.29 19.45, 31.44 0.65 M-0.65 36.35 C11.07 25.04, 21.97 12.2, 31.31 -0.18 M-1.29 44.4 C10.29 31.65, 18.69 20.96, 38.83 -0.99 M0.57 42.61 C12.08 29.38, 22.12 17.18, 36.37 0.01 M-0.71 49.49 C12.59 35.57, 24.2 21.84, 42.15 -1.09 M-0.31 47.98 C16.75 29.35, 34.28 11.04, 42.08 0.8 M1.9 56.37 C14.96 35.24, 32.2 18.35, 45.7 -0.23 M0.27 54.58 C11.58 42.4, 24.11 29.55, 48.43 1 M1.16 59.64 C13.19 44.99, 30.53 26.61, 51.41 0.05 M-0.64 61.4 C18.37 40.87, 34.93 19.89, 52.83 0.54 M-0.28 66.65 C18.9 49.13, 36.16 27.79, 57.27 1.6 M-0.69 66.81 C15.92 48.96, 32.19 29.64, 58.11 0.34 M1.87 74.17 C18.08 53.82, 35.74 33.41, 62.17 -1.95 M1 72.61 C18.82 50.28, 38.46 28.41, 62.92 0.05 M-0.8 80.99 C24.2 52.9, 50.92 22.61, 68.28 -0.79 M-0.98 80.17 C17.47 57.75, 37.69 35.52, 69.67 -0.07 M-1.12 85.05 C27.3 54.8, 56.5 22.49, 73.95 -0.64 M-0.51 84.88 C22.32 59.2, 47.3 32.73, 74.97 0.61 M1.96 91.83 C26.97 58.81, 55.77 27.07, 80.04 1.75 M-0.03 92.08 C24.75 62.47, 49.54 34.93, 79.57 0.95 M-0.39 99.44 C18.72 76.03, 38.55 55.39, 86.84 -1.15 M-0.74 97.53 C30.77 61.17, 60.52 26.52, 84.8 -0.2 M-1.19 103.28 C23.92 74.64, 52.66 45.05, 88.41 0.81 M0.61 103.5 C27.07 72.59, 52.25 42.4, 90.5 -0.13 M-0.03 108.66 C21.97 84.67, 47.11 56.92, 97.48 -0.19 M-1.06 110.87 C30.93 74.47, 62.24 39.32, 95.46 -0.52 M1.16 115.91 C23.23 86.38, 48.99 60.12, 99.81 -1.57 M0.61 115.65 C36.11 72.4, 74.88 30.24, 101.36 0.43 M0.49 120.75 C31.3 88.3, 63.77 49.75, 107.07 -2 M-0.61 122.8 C25.36 91.24, 53.46 59.97, 107.21 -0.23 M0.31 127.45 C31 89.34, 65.24 53.18, 111.23 -0.95 M0.2 128.8 C34.24 89.73, 66.97 51.85, 111.28 -0.35 M0.9 133.42 C25.41 105.59, 50.83 77.4, 116.75 2.36 M0.37 133.7 C33.79 96.19, 67.05 58.79, 116.88 -0.14 M-1.91 141.84 C43.18 91.42, 87.14 41.13, 122.24 1.59 M0.81 141.22 C32.58 102.76, 65.32 66.13, 121.59 -0.14 M-0.49 146.81 C42.08 96.74, 86.15 47.65, 124.17 2.25 M-0.16 145.26 C38.31 102.56, 77.12 58.01, 124.51 3.18 M-1.06 153.7 C43.35 103.91, 86.96 53.86, 123.71 7.69 M-0.9 151.75 C38.19 105.8, 77.64 61.62, 124.64 8.92 M0.53 160.28 C41.3 112.48, 83.31 61.45, 125.03 15.04 M-0.67 159.2 C43.21 109.66, 87.54 58.73, 124.8 15.03 M0.48 165.34 C29.02 130.12, 58.75 96.46, 124.28 20.59 M-0.39 164.75 C35.08 124.14, 69.76 83.65, 126.15 21.19 M0.69 169.35 C49.86 113.89, 99.02 59.75, 123.3 28.41 M0.56 170.25 C40.22 122.26, 82.13 75.73, 125.42 26.86 M0.94 175.51 C44.19 121.58, 90.35 71.03, 125.79 31.48 M0.11 176.83 C30.39 141.78, 63.52 105.16, 124.73 33.8 M1.33 182.22 C22.54 153.17, 50.99 126.82, 127.01 40.3 M-0.51 182.7 C42.49 137.44, 83.36 90.69, 124.73 38.19 M-1.57 188.13 C44.36 138.88, 89.38 87.05, 123.37 43.52 M-1.07 189.69 C41.54 142.37, 83.35 93.93, 125.91 44.67 M-1 196.8 C26.96 162.63, 53.97 133.2, 124.74 49.07 M0.96 195.35 C41.24 149.02, 83.57 99.63, 126.31 50.87 M1.59 201.32 C24.88 172.61, 52.77 138.89, 124.73 56.53 M-0.42 201 C31.34 164.18, 64.52 128.12, 125.48 57.27 M0.81 205.43 C47.18 153.95, 89.06 104.02, 124.98 62.28 M0.04 206.28 C34.57 167.86, 67.81 129.16, 124.29 63.74 M1.66 211.9 C46.82 161.12, 90.92 108.75, 124.78 68.06 M0.81 213 C48.81 158.15, 96.81 102.25, 126.09 69.59 M-0.22 219.64 C40.42 171.22, 82.57 125.83, 126.74 73.68 M-0.65 219.63 C25.32 190.66, 49.6 161.49, 125.99 75.68 M-0.9 224.35 C35.57 181.69, 69.81 141.03, 125.02 82.07 M-0.72 225.44 C40.63 180.09, 81.82 134.15, 124.61 80.91 M1.48 231.14 C39.11 185.32, 77.99 140.36, 123.66 87.7 M-0.31 232.54 C37.58 188.59, 75.74 145, 126 88.11 M-1.07 235.62 C32.05 200.23, 59.76 164.48, 124.84 93.7 M0.83 238.38 C33.03 199.13, 68.22 161.68, 125.47 94.55 M0.03 244.33 C26.18 213.61, 53.45 180.81, 126.55 100.46 M0.13 243.68 C34.56 205.71, 68.69 165.18, 124.76 99.99 M-1.92 251.82 C42.44 200.25, 88.66 148.37, 124.18 106.29 M-0.11 250.89 C36.43 209.35, 71.04 168.54, 125.3 106.82 M0.81 257.3 C39.9 212.67, 76.48 167.51, 126.81 112.51 M0.6 256.28 C47.32 203.3, 91.81 151.85, 125.95 112.53 M0.01 261.26 C42.18 215.52, 83.32 165.88, 123.55 119.87 M0.06 262.06 C31.63 226.68, 62.11 191.34, 124.97 117.6 M-0.25 266.58 C37.3 224.95, 75.26 181.79, 123.75 125.61 M1.25 268.84 C42.18 219.86, 83.31 173.3, 125.79 124.01 M0.07 273.42 C42.04 225.43, 80.97 180.71, 126.68 132.15 M1.52 272.02 C32.78 236.7, 64.52 199.99, 126.23 129.3 M5.22 272.33 C45.74 229.79, 81.35 186.96, 123.19 135.69 M6.37 272.32 C38.74 236.27, 71.92 198.93, 125.7 136.7 M13.42 273.93 C46.79 234.99, 82.43 192.26, 123.89 143.3 M12.86 272.89 C38.57 240.27, 67.68 207.46, 125.04 141.6 M16.99 273.47 C57.34 228.95, 92.46 184.65, 125.57 149.36 M17.24 273.31 C40.11 247.08, 64.16 220.57, 124.36 149.44 M22.69 272.48 C51.36 240.6, 77.31 211.4, 123.39 156.63 M22.85 272.67 C60.05 227.73, 99.91 183.18, 124.93 154.22 M26.06 271.13 C58.01 238.41, 91.54 200.26, 124.53 160.93 M28.06 273.41 C56.38 241.11, 85.04 208.92, 126.31 160.58 M32.29 272.62 C53.27 250.52, 71.75 226.93, 125.9 167.69 M32.66 273.1 C54.71 249.49, 75.87 223.93, 125.62 167.88 M38.62 271.57 C63.45 244.63, 89.66 213.44, 126.28 173.15 M37.87 272.26 C73.34 235.34, 106.72 196.12, 125.31 172.75 M43.18 274.35 C73.1 240.11, 105.88 201.27, 124.76 180.68 M44.69 272.18 C62.63 250.01, 82.01 228.72, 125.08 178.88 M47.4 271.51 C64.73 251.82, 83.12 233.03, 124.93 185.95 M47.91 272.75 C73.78 244.33, 96.79 217.54, 125.69 185.62 M52.87 274.1 C67.83 257.02, 85.48 237.61, 124.53 189.51 M54.53 272.21 C71.75 253.97, 87.77 236.29, 126.15 192.01 M59.71 274.11 C84.05 243.08, 112.22 214.38, 125.12 197.45 M59.66 273.06 C73.26 258.19, 85.21 241.94, 124.96 196.88 M63.45 272.75 C79.68 256.45, 92.09 243.48, 124.31 202.51 M65.01 271.77 C82.74 252.78, 100.61 233.83, 125.88 203.37 M69.41 272.94 C83.24 258.34, 97.71 242.1, 126.11 208.46 M70.8 272.66 C87.11 253.24, 105.3 232.55, 125.88 208.78 M77.56 271.59 C90.6 255.4, 103.9 242.66, 125.14 215.21 M76.18 271.69 C90.55 255.28, 105.43 238.53, 124.9 215.09 M80.92 272.04 C94.56 257.31, 107.61 244.45, 124.34 223.47 M81.22 272.29 C90.53 260.44, 100.56 249.11, 125.09 221.06 M86.41 272.38 C99.94 258.46, 112.1 246.08, 124.56 227.33 M87.3 273.13 C95.9 262.15, 103.84 253.62, 126.02 228.29 M93.24 273.88 C102.83 258.57, 118.87 243.08, 124.83 235.42 M91.06 271.98 C100.82 260.59, 111.6 249.83, 126.45 233.76 M97.77 273.3 C105.4 262.52, 111.69 254.98, 124.71 239.27 M96.86 273.49 C107.69 259.32, 119.06 247.96, 124.3 239.67 M103.92 271.35 C108.81 263.29, 118.31 255.68, 124.52 246.43 M102.66 273.03 C109.17 263.76, 117.24 255.59, 124.38 245.97 M107.98 272.97 C112.33 264.78, 117.78 261.49, 126.97 253.1 M108.54 272.48 C113.85 265.37, 121.88 256.81, 125.67 252.45 M113.05 271.84 C116.34 270.86, 116.18 267.85, 126.77 256.88 M112.58 272.08 C115.76 269.06, 120.98 263.31, 124.52 258.77 M117.42 271.99 C118.52 270.69, 121.57 269.99, 126.55 264.87 M118.23 272.97 C119.7 271.47, 121.87 269.33, 125.98 264.72" stroke="#a5d8ff" stroke-width="0.5" fill="none"></path><path d="M-0.27 1.14 C32.35 0.08, 61.05 -1, 123.72 1.2 M0.79 0.25 C39.38 0.46, 77.73 0.7, 123.39 0.49 M122.73 -0.92 C124.69 65.46, 123.57 129.28, 121.63 270.43 M122.06 -0.62 C122.42 56.04, 122.48 112.92, 122.14 270.9 M122.86 271.32 C82.77 270.4, 44.51 273.37, 1.2 271.37 M123.1 271.6 C83.14 273.14, 45.76 271.82, -0.66 270.67 M0.6 271.85 C-0.5 163.1, -0.5 56.9, -0.83 1.02 M0.39 271.29 C0.41 199.65, 0.54 128.09, 0.62 0" stroke="#1e1e1e" stroke-width="1" fill="none"></path></g><g transform="translate(1028.2004197231254 126.90204517826169) rotate(0 48.369140625 23)"><text x="48.369140625" y="0" font-family="Helvetica, Segoe UI Emoji" font-size="20px" fill="#1e1e1e" text-anchor="middle" style="white-space: pre;" direction="ltr" dominant-baseline="text-before-edge">pganalyze </text><text x="48.369140625" y="23" font-family="Helvetica, Segoe UI Emoji" font-size="20px" fill="#1e1e1e" text-anchor="middle" style="white-space: pre;" direction="ltr" dominant-baseline="text-before-edge">collector</text></g><g stroke-linecap="round" transform="translate(1065.4389409829555 268.22765259850985) rotate(0 69.11967025864533 17.84518909375356)"><path d="M-1.98 1.47 L137.03 -1.78 L138.44 37.12 L1.73 36.9" stroke="none" stroke-width="0" fill="#ffec99"></path><path d="M-0.78 -1.87 C50.55 1.75, 99.08 -0.64, 137.79 1.58 M0.4 0.43 C45.8 0.22, 89.31 0.73, 138.56 0.12 M136.85 -0.27 C137.07 7.06, 136.4 16.92, 139.82 34.42 M138.53 0.28 C137.78 6.94, 138.47 15.41, 138.13 35.84 M137.58 37.56 C100.14 34.67, 59.95 34.42, 1.6 36.78 M138.87 34.9 C96.6 35.45, 57.25 36.2, 0.34 36.07 M-1.23 36.56 C-0.84 25.8, -0.49 13.04, -1.43 0.99 M0.34 35.97 C0.74 26.57, 0.19 17.22, 0.91 0.29" stroke="#1e1e1e" stroke-width="4" fill="none"></path></g><g transform="translate(1090.0898612416013 276.87284169226314) rotate(0 44.46875 9.199999999999818)"><text x="44.46875" y="0" font-family="Helvetica, Segoe UI Emoji" font-size="16px" fill="#1e1e1e" text-anchor="middle" style="white-space: pre;" direction="ltr" dominant-baseline="text-before-edge">otel exporter</text></g><g stroke-linecap="round" transform="translate(544.5147722237843 182.87323529708647) rotate(0 128.40830863147858 50.37502103976203)"><path d="M0 0 C0 0, 0 0, 0 0 M0 0 C0 0, 0 0, 0 0 M-0.36 6.57 C2.02 3.93, 3.58 3.51, 5.05 0.25 M-0.47 6.4 C1.12 4.12, 2.96 2.36, 5.15 0.43 M0.21 11.31 C1.63 10.91, 3.75 5.36, 10.09 0.14 M-0.13 11.6 C1.78 9, 3.88 6.35, 10.65 -0.03 M1.35 17.19 C3.81 13.8, 7.07 10.95, 16.55 -0.73 M-1.04 19.23 C4.62 11.49, 9.95 5.92, 15.44 0.01 M2.16 22.49 C4.73 18.68, 13.03 10.71, 22.26 -1.67 M0.51 23.97 C8.74 14.57, 16.24 6.18, 21.65 -0.32 M-0.3 30.2 C8.75 20.8, 14.59 11.92, 26.85 1.38 M0.8 29.9 C9.23 20.69, 17.83 9.6, 26.35 0.16 M1.05 38.22 C9.05 24.67, 19.56 15.42, 33.36 -0.16 M0.45 37.62 C7.09 28.75, 13.26 20.55, 32.28 0.54 M0.95 43.88 C8.78 30.91, 20.06 22.51, 38.49 0.9 M-0.37 42.15 C8.05 33.25, 14.69 24.39, 37.75 -0.26 M-0.56 48.54 C10.47 35.36, 21.65 24.54, 41.48 -0.09 M-0.79 49.07 C15.98 31.08, 31.94 11.98, 43.07 0.2 M2.11 54.7 C12.86 37.94, 28.78 24.93, 46.48 0.76 M0.58 55 C16.58 35.36, 34.17 17.26, 48.5 -0.21 M-1.56 62.4 C19.72 38.74, 39.89 15.97, 51.43 0.21 M-0.41 61.49 C14.49 44.13, 29.23 27.3, 52.71 -0.42 M-1.94 66.31 C16.14 48.49, 32.97 30.87, 58.42 0.34 M0.33 67.52 C20.36 45.19, 38.44 21.57, 58.68 -0.36 M0.37 72.41 C24.77 46.68, 47.32 16.32, 62.57 0.83 M0.31 73.58 C13.39 56.81, 26.43 42.58, 64.16 -1.1 M0.23 78.55 C17.11 62.08, 32.87 39.83, 70.44 -0.57 M-0.25 79.78 C14.3 61.97, 30.23 44.06, 69.58 0.9 M0.14 83.63 C22.87 59.45, 45.49 30.73, 72.84 0.28 M-0.71 84.33 C23.63 59.99, 45.26 33.7, 74.55 -0.35 M0.64 91.94 C23.25 66.94, 46.02 42.19, 79.26 -1.71 M-0.03 91.42 C16.86 72.03, 32.96 53.37, 79.72 -0.56 M0.54 98.31 C28.06 68.05, 52.47 38.55, 86.72 -0.47 M-0.99 97.74 C25.05 69.5, 48.81 41.02, 85.27 0.62 M-0.15 103.19 C25.39 77.18, 46.96 51.58, 90.15 1.6 M2.3 101.06 C25.24 77.3, 45.28 51.68, 90.83 -0.56 M5.47 101.33 C30.66 71.61, 57.73 42.32, 95.26 -2.02 M5.69 102.3 C35.65 68.57, 66.43 32.14, 95.9 -0.15 M11.53 103.9 C38 70.96, 67.3 40.73, 100.93 -1.53 M12.82 101.09 C47.5 64.09, 80.47 24.79, 99.85 -0.67 M16.24 102.83 C34.95 81.8, 54.81 62.42, 108.08 1.48 M17.63 101.6 C40.94 75.8, 64.79 48.28, 106.26 -1.32 M22.85 103.71 C55.86 64.13, 85.89 28.05, 110.01 -1.53 M22.79 102.79 C58.24 62.43, 94.78 20.86, 110.96 -0.14 M26.04 102.15 C47.77 80.43, 69.56 56.66, 116.69 -0.95 M27.7 102.29 C51.67 75.91, 74.85 48.03, 115.72 0.5 M32.75 100.16 C51.66 80.71, 67.98 60.99, 120.34 -0.41 M32.86 102.15 C52.58 78.96, 73.39 56.87, 121.54 0.03 M36.59 102.53 C70.41 64.98, 103.52 27.75, 125.15 -0.11 M37.9 102.73 C56.94 80.51, 77.18 56.69, 127.84 -0.31 M42.71 101.2 C76.32 61.64, 111.02 24.41, 131.45 0.26 M43.91 102.45 C68.41 73.89, 94.04 44.52, 132.21 -0.87 M50.16 103.66 C67.57 78.96, 89.83 57.41, 138.11 1.92 M49.46 101.61 C85.25 61.84, 120.16 20.1, 138.42 0.19 M52.79 101.25 C81.57 69.97, 111.74 37.06, 143.41 -0.64 M55.01 102.23 C86.2 64.78, 118.52 28.35, 142.79 0.73 M61.59 101.65 C80.2 77.12, 104.75 48.66, 147.43 0.73 M58.84 101.86 C86.84 70.47, 114.76 37.9, 148.16 0.45 M65.6 101.13 C85.36 77.64, 107.07 51.11, 152.88 0.19 M65.49 101.36 C95.64 65.52, 128.18 31.17, 154.32 0.69 M70.26 101.06 C99.35 70.93, 125.5 38.16, 159.53 -1.67 M69.71 102.73 C97.38 70.77, 123.71 42.13, 157.95 0.24 M74.31 100.13 C94.94 82.13, 110.29 58.18, 165.05 -1.51 M74.87 100.93 C99.84 73.19, 126.15 44.91, 165.06 -0.85 M80.14 102.89 C107.2 74.08, 132.34 44.57, 171.4 -0.81 M80.95 101.71 C111.59 69.14, 138.85 35.77, 168.92 0.57 M86.67 99.96 C109.02 75.8, 129.25 50.74, 173.7 -1.55 M86.91 101.36 C113.28 69.85, 141.31 36.45, 174.51 0.52 M91.74 100.57 C116.94 73.23, 142.21 46.9, 178.61 -1.78 M90.67 102.59 C126.61 62.78, 161.94 22.72, 180.42 -0.26 M96.98 100.77 C125.65 70.77, 154.18 34.98, 185.17 0.7 M97.56 102.32 C126.32 69.07, 155.27 34.85, 185.35 -0.51 M102.15 103.96 C121.24 78.56, 141.69 55.83, 191.25 0.75 M102.2 101.46 C130.45 70.8, 159.38 37.31, 189.99 -0.64 M106.09 101.15 C128.14 75.35, 151.67 47.24, 194.35 -1.73 M107.01 100.77 C136.64 67.62, 167.37 32.36, 195.51 -0.95 M113.02 103.39 C137.7 78.53, 160.03 51.73, 202.01 -1.44 M112.08 102.67 C144.99 66.39, 174.36 31.32, 201.43 0.28 M116.8 102.88 C140.25 73.86, 167.47 44.87, 208.69 0.68 M117.01 101.73 C141.12 73.71, 166.95 44.73, 206.12 0.46 M122.55 101.59 C155.41 65.58, 188.12 27.07, 210.13 1.87 M124.07 102.84 C155.18 62.74, 189.2 25.42, 212.72 0.66 M128.38 103.92 C152.72 73.99, 175.1 47.56, 216.22 -2.14 M127.49 103.2 C147.41 79.42, 165.86 58.23, 217.55 -0.74 M133.52 101.75 C160.99 68.5, 192.66 34.85, 221.4 -0.68 M133.16 102.9 C160.51 71.9, 188.27 41.29, 222.08 -0.08 M140.75 102.91 C162 76.02, 183.16 48.52, 229.52 0.16 M138.64 102.75 C171.23 64.93, 203.15 28.32, 227.37 -0.73 M145.25 103.48 C177.72 61.14, 212.34 24.13, 232.2 -2 M145.55 102.05 C166.53 77.02, 189.18 51.46, 233.96 0.8 M149 104.2 C168.18 80.95, 186.58 60.06, 237.08 -0.83 M149.52 102.46 C170.67 79.13, 188.91 55.53, 237.71 -0.64 M153.64 102.84 C186.63 64.78, 216.11 31.92, 245.45 -0.56 M154.65 101.76 C191.47 60.56, 225.73 19.88, 242.99 -0.73 M158.83 102.58 C194.65 63.77, 230.65 21.13, 249.92 0.61 M159.41 101.7 C182.98 74.94, 206.62 47.68, 247.9 0.38 M167.16 100.34 C189.7 71.47, 215.56 45.41, 254.63 -0.4 M165.11 101.79 C194.76 66.68, 225.25 33.51, 254.06 0.61 M170.47 103.24 C205.96 62.43, 238.7 21.85, 256.34 2.42 M171.81 103.13 C192.9 75.1, 215.58 49.21, 257.22 1.29 M174.81 100.89 C198.41 76.19, 221.87 48.52, 257.25 8.44 M176.78 102.19 C197.79 75.74, 221.88 50.53, 257.7 6.94 M182.72 101.84 C209.44 71.94, 235.32 44.3, 259.3 13.79 M182.43 102.68 C205.87 74.02, 231.71 44.26, 258.22 14.08 M186.18 101.88 C202.93 83.25, 218.55 66.82, 258.54 19.77 M186.74 101.28 C207.12 79.48, 225.29 56.11, 257.83 19.06 M192.95 100.47 C209.05 83.62, 227.78 60.8, 259.39 24.71 M191.2 101.55 C210.47 80.49, 229.75 60.3, 257.78 25.41 M199.43 101.1 C211.85 85.61, 226.36 65.09, 258.95 33.09 M197.27 101.66 C220.82 75.14, 244.56 47.09, 257.28 32.32 M201.08 103.66 C219.93 80.88, 238.16 59.87, 256.56 36.17 M202.29 102.25 C220.57 81.95, 237.43 62.27, 258.77 38.79 M209.25 100.81 C223.42 83.2, 238.9 66.18, 259.53 44.62 M207.91 102.22 C227.09 80.55, 243.46 59.79, 259.09 43.63 M213.6 102.37 C223.4 91.77, 232.29 77.38, 259.33 49.61 M214.06 102.55 C226.01 86.01, 240.26 70.44, 259.3 50.02 M218.92 99.68 C233.92 84.93, 248.46 68.84, 257.94 55.25 M219.37 102.12 C230.54 87.18, 241.91 74.07, 258.59 55.4 M223.56 102 C235.7 88.53, 247.15 75.39, 260.13 63.64 M223.1 101.51 C233.02 92.41, 241.85 80.15, 258.05 61.93 M227.62 101.6 C233.91 95.54, 244.11 85.68, 259.04 67.57 M228.95 101.57 C239.57 90.28, 250.27 77.6, 257.94 68.61 M234.59 102.39 C240.97 94.3, 244.08 92.11, 257.91 75.08 M234.23 101.47 C242.28 91.36, 251.96 81.07, 258.87 75.35 M241.04 100.6 C244.02 97.29, 250.79 90.03, 258.25 78.61 M239.13 102.79 C245.47 95.65, 252.52 87.98, 259.57 79.5 M244.84 101.82 C250.47 97.33, 253.16 92.42, 258.23 87.41 M244.47 102.04 C248.93 97.71, 252.74 93.58, 258.86 87.68 M251.01 101.79 C252.11 98.09, 256.17 95.44, 257.41 92.85 M249.9 102.44 C251.84 100.47, 253.36 98.35, 257.72 92.7" stroke="#ffc9c9" stroke-width="0.5" fill="none"></path><path d="M0.67 -0.11 C70.8 2.19, 139.91 3.08, 256.09 -1.42 M0.76 -0.36 C55.72 1.04, 112.53 0.91, 256.13 0.25 M257.67 -0.19 C257.94 34.23, 254.74 67.36, 257.02 98.96 M256.82 -0.66 C257.53 30.88, 255.84 61.32, 256.5 100.3 M256.31 99.51 C183.81 100.89, 113.23 100.52, 0.17 101.76 M256.2 101.33 C183.35 100.52, 111.38 101.29, -0.52 100.53 M-1.35 101.92 C0.26 67.77, 1.16 34.29, 0.35 1.35 M-0.73 101.33 C0.63 67.45, 0.92 34.64, -0.57 0.86" stroke="#1e1e1e" stroke-width="1" fill="none"></path></g><g transform="translate(629.5783542927629 221.7482563368485) rotate(0 43.3447265625 11.5)"><text x="43.3447265625" y="0" font-family="Helvetica, Segoe UI Emoji" font-size="20px" fill="#1e1e1e" text-anchor="middle" style="white-space: pre;" direction="ltr" dominant-baseline="text-before-edge">Service C</text></g><g stroke-linecap="round" transform="translate(666.3740415579769 254.23782589529128) rotate(0 69.11967025864533 17.84518909375356)"><path d="M0.06 0.04 L137.47 -0.4 L139.74 36.46 L0.61 35.64" stroke="none" stroke-width="0" fill="#ffec99"></path><path d="M-0.88 1.68 C39.59 -2.16, 79.38 -0.13, 137.07 1.88 M-0.25 -0.37 C34.39 0.61, 70.73 -0.47, 139.04 0.43 M136.93 1.68 C138.78 8.58, 138.69 20.61, 139.93 35.7 M137.33 -0.24 C138.2 7.9, 138.31 16.36, 137.92 35.37 M137.77 36.24 C107.61 37.64, 76.24 35.38, 0.51 34.16 M138.47 35.7 C86.22 34.11, 35.72 34.49, -0.26 35.01 M1.28 34.37 C0.28 24.25, 0.47 8.68, 1.63 -1.46 M0.19 35.41 C-0.54 23.79, -0.2 9.79, 0.78 -0.36" stroke="#1e1e1e" stroke-width="1" fill="none"></path></g><g transform="translate(691.0249618166226 262.88301498904457) rotate(0 44.46875 9.199999999999818)"><text x="44.46875" y="0" font-family="Helvetica, Segoe UI Emoji" font-size="16px" fill="#1e1e1e" text-anchor="middle" style="white-space: pre;" direction="ltr" dominant-baseline="text-before-edge">otel exporter</text></g><g stroke-linecap="round" transform="translate(861.0266589284302 10) rotate(0 65.88221431035527 50.37502103976203)"><path d="M1.79 -0.36 C41.57 -1.39, 86.59 0.66, 133.58 1.75 M0.29 0.99 C47.4 0.59, 96.19 1.18, 132.35 0.79 M129.81 0.09 C131.44 39.42, 132.82 81.15, 129.95 101.4 M132.64 0.3 C132.21 24.31, 132.65 50.41, 131.22 101.14 M132.7 100.91 C102.04 100.28, 69.24 101.79, -1.37 99.16 M131.59 101.04 C99.77 99.72, 67.84 100.36, 0.62 101.65 M-0.77 98.9 C-0.65 78.91, 0.96 54.64, 1.17 -0.47 M-0.33 101.52 C0.35 66.43, 0.55 33.97, 0.4 -0.84" stroke="#1e1e1e" stroke-width="1" fill="none"></path></g><g transform="translate(874.6530138637854 48.87502103976294) rotate(0 52.255859375 11.5)"><text x="52.255859375" y="0" font-family="Helvetica, Segoe UI Emoji" font-size="20px" fill="#1e1e1e" text-anchor="middle" style="white-space: pre;" direction="ltr" dominant-baseline="text-before-edge">Database Y</text></g><g stroke-linecap="round" transform="translate(864.9754138248672 184.61393964181207) rotate(0 65.88221431035527 50.37502103976203)"><path d="M-0.49 -0.17 C41.85 0.07, 87.87 0.26, 130.59 -0.71 M-0.84 0.99 C38.32 -0.06, 78.85 -0.55, 131.27 -0.11 M133.52 0.63 C132.29 25.36, 130.47 50.22, 133.06 101.28 M131.41 0.47 C133.41 35.92, 133.03 72.97, 130.91 100.39 M132.38 102.35 C81.47 100.39, 32.5 102.02, -1.01 98.75 M132.68 100.92 C99.18 100.05, 67.18 99.76, 0.75 101.55 M-0.62 102.71 C0.15 80.31, 0.15 59.67, -1.11 -1.19 M-0.1 100.97 C1.02 78.31, -0.76 54.96, -0.48 -1" stroke="#1e1e1e" stroke-width="1" fill="none"></path></g><g transform="translate(879.1632921977225 223.488960681575) rotate(0 51.6943359375 11.5)"><text x="51.6943359375" y="0" font-family="Helvetica, Segoe UI Emoji" font-size="20px" fill="#1e1e1e" text-anchor="middle" style="white-space: pre;" direction="ltr" dominant-baseline="text-before-edge">Database Z</text></g><g stroke-linecap="round"><g transform="translate(270.97905637174335 58.39500764761851) rotate(0 112.48092663363013 -0.25501077352691937)"><path d="M0.92 1.19 C74.81 -2.98, 148.44 -2.15, 222.91 -0.98 M0.65 0.13 C84.54 2.07, 170.34 1.8, 224.32 -0.53" stroke="#1e1e1e" stroke-width="1" fill="none"></path></g><g transform="translate(270.97905637174335 58.39500764761851) rotate(0 112.48092663363013 -0.25501077352691937)"><path d="M197.48 11.88 C205.96 5.1, 214.15 2.41, 222.52 -1.66 M197.17 10.65 C206.41 7.26, 217.87 2.78, 224.15 -1.14" stroke="#1e1e1e" stroke-width="1" fill="none"></path></g><g transform="translate(270.97905637174335 58.39500764761851) rotate(0 112.48092663363013 -0.25501077352691937)"><path d="M196.92 -8.63 C205.58 -8.61, 213.95 -4.48, 222.52 -1.66 M196.61 -9.86 C206.09 -5.48, 217.77 -2.19, 224.15 -1.14" stroke="#1e1e1e" stroke-width="1" fill="none"></path></g></g><mask></mask><g stroke-linecap="round"><g transform="translate(275.1543121826144 73.08046207187726) rotate(0 128.2784108548476 79.6227102021171)"><path d="M0.04 -0.86 C81.1 50.5, 162.57 100.5, 256.52 160.04 M0.21 -0.71 C79.01 48.88, 158.93 99.5, 256.01 160.1" stroke="#1e1e1e" stroke-width="1" fill="none"></path></g><g transform="translate(275.1543121826144 73.08046207187726) rotate(0 128.2784108548476 79.6227102021171)"><path d="M226.72 152.66 C235.97 157.55, 246.39 159.22, 256.55 160.77 M226.95 152.87 C235.3 155.32, 244.08 158.17, 255.84 160.86" stroke="#1e1e1e" stroke-width="1" fill="none"></path></g><g transform="translate(275.1543121826144 73.08046207187726) rotate(0 128.2784108548476 79.6227102021171)"><path d="M237.61 135.27 C243.5 145.69, 250.49 152.84, 256.55 160.77 M237.84 135.47 C242.66 143.43, 248.02 151.72, 255.84 160.86" stroke="#1e1e1e" stroke-width="1" fill="none"></path></g></g><mask></mask><g stroke-linecap="round"><g transform="translate(760.1304514921903 59.02040714964278) rotate(0 49.370789508517646 1.1225211570090323)"><path d="M-0.42 1.08 C34.94 -0.18, 72.14 -0.31, 97.6 0.68 M0.06 0.02 C31.1 -0.22, 60.72 1.37, 99.17 2.25" stroke="#1e1e1e" stroke-width="1" fill="none"></path></g><g transform="translate(760.1304514921903 59.02040714964278) rotate(0 49.370789508517646 1.1225211570090323)"><path d="M70.27 12.79 C80.56 7.53, 92.65 3.05, 98.4 0.29 M70.76 11.73 C80.15 8.34, 88.24 6.2, 99.97 1.86" stroke="#1e1e1e" stroke-width="1" fill="none"></path></g><g transform="translate(760.1304514921903 59.02040714964278) rotate(0 49.370789508517646 1.1225211570090323)"><path d="M70.85 -7.72 C80.89 -5.62, 92.78 -2.72, 98.4 0.29 M71.34 -8.78 C80.72 -5.85, 88.63 -1.67, 99.97 1.86" stroke="#1e1e1e" stroke-width="1" fill="none"></path></g></g><mask></mask><g stroke-linecap="round"><g transform="translate(803.6680196641391 231.10735153189762) rotate(0 28.294057859543045 0.9794172039769364)"><path d="M-1.78 0.86 C12.53 -1.58, 28.11 -0.77, 58.37 2.52 M0.98 -0.55 C21.22 1.15, 43.43 0.76, 58.1 1.88" stroke="#1e1e1e" stroke-width="1" fill="none"></path></g><g transform="translate(803.6680196641391 231.10735153189762) rotate(0 28.294057859543045 0.9794172039769364)"><path d="M28.56 11.4 C35.45 6.67, 43.6 4.92, 58.33 2.57 M31.32 9.99 C40.49 7.99, 51.55 3.75, 58.07 1.94" stroke="#1e1e1e" stroke-width="1" fill="none"></path></g><g transform="translate(803.6680196641391 231.10735153189762) rotate(0 28.294057859543045 0.9794172039769364)"><path d="M29.49 -8.47 C36.13 -8.33, 44.06 -5.23, 58.33 2.57 M32.25 -9.88 C40.9 -4.58, 51.61 -1.52, 58.07 1.94" stroke="#1e1e1e" stroke-width="1" fill="none"></path></g></g><mask></mask><g stroke-linecap="round" transform="translate(14.12273870590252 434.5458639621811) rotate(0 555.3591733048838 14.199999999999818)"><path d="M0.47 -0.58 C355.87 -2.6, 712.89 -1.87, 1110.27 0.4 M-0.28 0.34 C399.13 -3.03, 798.67 -3.27, 1110.48 0.26 M1110.96 1.2 C1111.68 10.49, 1111.61 19.4, 1112.1 26.54 M1110.11 -0.31 C1110.31 7.25, 1110.71 16.12, 1110 28.9 M1111.24 28.31 C763.33 27.26, 416.3 26.69, 0.14 28.74 M1110.85 28.19 C850.38 27.98, 590.04 28.04, 0.27 28.72 M-0.33 29.84 C-0.19 21.49, 1.26 12.65, 0.13 0.75 M0.21 28.13 C0.49 20.52, 0.2 12, 0.24 -0.73" stroke="#1e1e1e" stroke-width="1" fill="none"></path></g><g transform="translate(19.12273870590252 439.5458639621811) rotate(0 67.140625 9.199999999999818)"><text x="0" y="0" font-family="Helvetica, Segoe UI Emoji" font-size="16px" fill="#1e1e1e" text-anchor="start" style="white-space: pre;" direction="ltr" dominant-baseline="text-before-edge">Span 1 (Service A)</text></g><g stroke-linecap="round" transform="translate(117.85839697494976 472.9748865103811) rotate(0 213.75429682181266 14.852599819709212)"><path d="M0 0 C0 0, 0 0, 0 0 M0 0 C0 0, 0 0, 0 0 M0.26 6.41 C1.16 5.56, 2.9 3.05, 4.36 0.47 M-0.47 6.39 C0.97 5.28, 2.38 3.65, 5.09 0.6 M1.38 12.68 C3.82 7.42, 8.2 4.28, 10.28 0 M0.66 11.59 C3.17 7.93, 6.64 4.2, 10.75 0.68 M0.08 19.55 C4.81 12.29, 10.08 10.63, 14.63 0.52 M0.05 18.37 C3.76 15.06, 6.43 11.11, 15.21 -0.33 M-0.67 22.88 C9.47 14.42, 16.55 3.79, 22.78 -0.85 M1.19 24.2 C6.33 17.8, 11.16 12.69, 21.36 -0.36 M-1.15 28.23 C10.35 20.5, 17.87 9.35, 24.97 0.05 M1.62 30.15 C6.25 22.7, 13.01 16.02, 25.3 0.1 M5.22 28.1 C14.46 21.21, 26.09 9.79, 32.71 -1.15 M6.42 30.93 C13.91 20.4, 22.82 10.92, 32.82 -0.74 M10.04 28.34 C19.15 21.41, 25.42 14.68, 37.01 -0.87 M11.71 30.45 C18.19 22.88, 24.03 14.54, 37.35 0.06 M16.67 29.66 C22.91 22.1, 29.73 13.84, 41.31 0.72 M16.97 30.83 C21.26 23.72, 26.31 18.06, 42.38 -0.08 M23.25 30.8 C32.48 18.19, 38.89 8.55, 47.84 0.11 M21.64 30.91 C31.33 19.13, 42.17 5.52, 47.42 0.63 M28.29 29.17 C33.62 24.11, 38.63 15.39, 54.48 -1.19 M26.27 30.4 C32.78 21.84, 39.37 14.5, 52.44 0.1 M32.42 29.43 C38.83 24.4, 46.28 16.08, 57.15 -0.24 M31.77 29.89 C40.56 20.74, 48.58 10.81, 57.8 0.2 M38.51 28.67 C45.85 21.39, 54.31 11.63, 62.68 -0.37 M37.21 29.4 C46.47 19.26, 54.72 9.7, 64.67 0.55 M42.12 28.73 C53.48 18.23, 62.48 7.68, 67.18 1.29 M41.72 30.26 C53.11 17.62, 64.01 6.37, 68.98 0.4 M48.32 28.62 C52.6 25.35, 58.77 15.46, 72.92 -1.9 M48.93 30.85 C56.51 20.82, 64.33 12.69, 73.9 0.33 M54.11 28.87 C62.6 19.41, 70.64 13.01, 78.72 -1.65 M52.95 30.46 C61.23 20.93, 70.8 9.87, 79.68 0.17 M57.27 27.92 C65.08 23.51, 71.9 14.12, 84.79 1.6 M58.76 29.06 C65.92 21.68, 72.64 13.86, 84.21 -1.26 M62.73 30.48 C73.61 17.48, 85.49 6.75, 91.15 -0.95 M64.18 31.16 C73.81 18.75, 83.39 7.95, 90.84 -0.28 M67.46 27.91 C79.67 19.65, 89.44 5.51, 94.44 -2.07 M70.27 29.6 C78.7 18.86, 88.18 8.66, 94.9 -0.6 M74.86 30.61 C79.97 20.15, 90.63 13.21, 102.38 1.89 M75.32 29.36 C82.87 22.45, 89.37 12.79, 101.6 0.55 M79.59 28.37 C90.52 19.89, 99.64 8.27, 106.57 -0.67 M79.23 29.36 C88.36 20.29, 96.87 10.67, 106.48 0.19 M85.98 30.76 C91.82 20.91, 100.66 13.71, 112.91 -0.16 M85.51 30.32 C94.46 19.87, 103.85 9.1, 111.35 -0.56 M88.89 31.51 C96.54 20.19, 105.73 15.34, 117.8 -0.75 M91.64 30.49 C98.5 20.98, 106.12 11.82, 116.03 0.04 M96.1 28.86 C104.78 20.36, 115.71 10.07, 121.8 0.31 M95.1 29.57 C105.01 19.08, 114.27 8.08, 121.66 0.44 M101.16 29.98 C107.67 24.53, 111.79 17.39, 127.27 1.3 M101.72 30.41 C109.4 19.18, 119.66 7.87, 127.82 -0.13 M105.8 31.29 C111.93 22.58, 118.75 15.01, 130.64 1.14 M105.68 30.93 C115.07 20.21, 125.2 9.07, 132.36 0.88 M112.76 30.87 C120.79 20.98, 128.06 10.31, 136.73 -0.21 M111.91 29.84 C119.85 20.5, 127.23 11.61, 137.34 1.18 M116.23 28.84 C122.7 23.01, 131.36 15.79, 143.63 -1.41 M116.04 30.52 C124.87 21.05, 132.66 13.26, 143.46 -0.6 M122.63 27.71 C125.87 23.75, 131.89 15.93, 149.12 0.7 M122.84 28.78 C128.33 22.39, 133.8 16.79, 148 0.97 M129.09 28.77 C135.68 21.18, 143.15 11.25, 155.5 -0.61 M128.18 30.72 C134.74 22.97, 140.46 15.56, 153.23 -0.12 M132.25 28.46 C143.75 20.33, 153.09 8.19, 159.98 -1.51 M133.41 30.5 C143.22 19.24, 152.58 7.3, 158.39 0.54 M138.66 30.75 C147.29 21.08, 153.37 11.98, 163.55 0.69 M137.35 30.19 C147.31 18.9, 156.47 8.59, 164.12 -0.48 M145.01 32.27 C148.88 23.34, 157.68 15.77, 169.38 0.01 M144.04 30.31 C150.7 20.46, 160.56 10.57, 170.35 -0.55 M147.77 30.92 C157.29 18.6, 167.18 9.8, 175.65 -1.93 M147.99 29.88 C154.8 22.06, 161.39 15.47, 174.81 0.77 M152.85 30.49 C160.64 19.48, 169.66 12.8, 181.96 0.57 M153.36 30.54 C163.85 19.09, 172.67 8, 180.92 -0.43 M159.82 29.81 C166.35 23.21, 171.99 13.5, 186.22 1.57 M159.77 29.02 C166.86 21.11, 174.82 10.82, 186.23 -0.62 M164.28 31.13 C173.18 17.61, 182.1 7.11, 190.95 -0.08 M164.23 31.06 C173.04 20.05, 182.58 9.05, 190.36 1.03 M170.76 28.44 C180.98 17.24, 190.1 5.99, 196.25 -0.36 M169.58 29.13 C178.89 20.4, 186.13 11.22, 195.47 0.38 M175.05 31.91 C180.7 23.84, 187.84 16.4, 202.1 -1.75 M174.41 30.28 C179.89 25.04, 185.32 17.47, 202.16 0.24 M181.11 28.23 C191.3 19.66, 202.26 6.25, 205.29 -0.82 M181.53 29.98 C186.43 22.97, 191.8 18.01, 207.9 0.07 M187.45 28.99 C193.17 20.89, 203.14 9.21, 213.75 0.16 M185.87 29.88 C192.06 23.56, 197.59 15.85, 211 -0.1 M191.96 31.05 C201.9 18.26, 212.75 7.4, 219.46 1.54 M190.94 29.66 C198.55 21.28, 204.82 14.12, 217.06 0.04 M194.34 28.95 C202.87 20.86, 210.81 13.95, 220.8 -1.28 M196.78 30.83 C201.72 23.66, 209.18 16.58, 222.83 0.99 M200.95 31.21 C210.24 16.88, 220.07 5.92, 227.44 -1.51 M202.36 30.52 C211.14 21.11, 218.26 11.99, 228.73 -0.83 M207.17 28.81 C213.21 24.47, 220.49 17.9, 234.71 -0.57 M207.55 29.36 C217.07 19.58, 225.57 9.36, 232.76 0.78 M214.29 31.46 C220.36 22.06, 227.67 14.6, 239.81 1.01 M213.55 29.2 C217.79 22.96, 224.46 17.11, 238.27 0.35 M215.91 32.05 C227.86 18.67, 233.99 10.9, 243.49 0.21 M216.81 31 C224.78 21.62, 231.29 15.16, 243.17 0.8 M222.76 30.98 C230.04 22.13, 241.1 10.68, 247.68 0.22 M223.49 30.6 C231.71 19.93, 240 11.21, 249.19 -0.49 M229.12 28.56 C239.06 16.21, 248.44 7.04, 255.72 -0.55 M227.39 30.56 C237.31 19.73, 246.78 9.65, 253.62 0.87 M233.68 29.38 C240.85 21.03, 249.3 12.97, 258.76 -0.02 M234.39 29.93 C242.37 20.16, 251.46 9.62, 259.27 0.11 M237.91 30.69 C251.31 18.05, 258.4 6.86, 264.56 -0.07 M238.36 30.13 C247.91 19.88, 256.63 9.78, 264.91 -0.9 M242.94 30.73 C251.63 22.01, 258.4 14.78, 271.97 1.81 M243.65 30.67 C250.62 21.8, 255.83 15.74, 269.18 0.16 M247.95 29.2 C259.61 17.28, 270.14 5.43, 275.72 0.91 M248.99 29.08 C256.92 21.35, 266.14 10.93, 275.05 -0.12 M254.36 32.28 C262.32 22.37, 270.4 12.61, 280.81 1.68 M255.28 31.34 C259.59 23.83, 265.37 17.91, 279.77 0.93 M259.5 29.31 C271.79 18.83, 278.69 9.98, 287.45 -1.92 M260.79 30.05 C265.21 24.34, 270.27 18.53, 287.28 -0.13 M266.26 29.44 C269.63 25.69, 276.87 17.19, 293.33 1.99 M264.42 30.46 C272.97 22.95, 279.11 14.72, 292.15 0.97 M271.34 30.68 C275.68 21.81, 283.05 14.27, 298.6 -0.45 M271.46 28.99 C279.57 19.25, 289.47 9.36, 296.04 0.02 M275.58 28.35 C286.07 18.61, 294.81 6.95, 300.15 -0.43 M275.51 31.11 C282.73 22.24, 289.27 12.8, 301.62 0.13 M280.85 31.39 C289.86 20.53, 295.42 11.56, 308.55 -2.12 M280.95 29.1 C290.75 17.6, 301.55 6.54, 307 -0.45 M284.44 30.81 C295 21.88, 301.45 16.15, 314.43 1.71 M286.84 29.89 C293.26 20.87, 301.31 13.21, 311.71 -0.49 M291.94 27.98 C299.63 23.58, 304.16 17.83, 317.28 -1.94 M291.4 30.87 C298.2 21.63, 306.64 13.05, 319.06 -0.01 M295.58 31.07 C302.29 21.56, 308.1 17.54, 323.92 -1.89 M297.92 29.7 C302.62 24.07, 308.85 17.24, 324.17 -0.46 M303.12 31.39 C310.27 21.23, 321.31 8.97, 329.3 1.53 M303.19 30.1 C309.44 20.4, 318.5 11.78, 328.32 -0.89 M308.25 31.8 C317.11 20.71, 325.44 10.29, 334.92 0.93 M307.48 29.7 C313.79 23.72, 317.43 16.96, 332.96 -0.13 M311.43 31.04 C320.55 23.03, 328.58 14.64, 337.68 -1.84 M312.91 29.82 C320.44 21.45, 328 13.31, 340.1 -1 M318.28 32.13 C324.3 22.94, 329.16 17.5, 344.29 0.76 M317.47 29.33 C323.2 24.8, 328.5 17.72, 344.28 -0.51 M324.48 30.76 C331.82 18.94, 339.05 9.33, 351.43 -0.99 M323.38 30.39 C334.38 18.89, 344.57 6.23, 350.3 0.75 M330.08 31.62 C340.42 16.78, 348.97 6.39, 355.46 -1.38 M329.07 30.32 C334.35 24.92, 340.36 17.63, 354.52 0.63 M336.45 28.83 C344.4 20.48, 350.81 8.82, 362.06 1.32 M333.61 29.41 C342.94 21.36, 349.6 11.91, 359.99 -0.49 M340.61 30.27 C347.73 20.3, 352.64 13.3, 366.43 -2.02 M338.66 30.7 C344.88 24.31, 351.15 17.59, 366.3 0.82 M344.09 29.96 C351.34 20.53, 359.28 13.26, 371.69 1.01 M344.86 29.79 C356.16 17.39, 365.87 5.83, 371.49 0.93 M351.37 28.49 C359.67 20.43, 367.91 10.52, 377.74 0.73 M349.85 30.73 C357.87 21.26, 366.21 12.74, 376.48 0.87 M354.69 29.31 C362.65 21.08, 370.18 14.07, 379.64 1.72 M356.6 29.72 C361.98 22.69, 367 15.08, 381.01 0.22 M360.46 31.18 C371.71 20.17, 379.41 5.91, 388.5 -0.78 M361.46 31.01 C368.27 21.3, 377.23 11.58, 386.1 0.87 M366.12 28.47 C371.97 21.27, 380.86 12.15, 393.82 -0.49 M366.5 30.66 C372.37 22.84, 379.33 14.31, 391.96 0.86 M370.52 31.62 C380.87 19.99, 391.84 6.12, 396.4 0.23 M371.54 30.38 C381.57 19.97, 391.42 8.79, 398.45 0.18 M378.14 32.2 C385.24 21.99, 393.13 14.21, 402.68 -1.15 M375.82 30.09 C384.23 22.97, 390.18 14.32, 402.99 0.6 M380.75 31.57 C387.5 21.82, 395.86 16.6, 409.66 0.97 M381.35 29.98 C392.49 18.98, 401.73 7.39, 409.02 -0.55 M387.07 29.48 C393.96 21.79, 402.97 11.68, 415.25 0.7 M388 30.55 C396.68 18.01, 407.96 7.54, 413.94 -0.52 M390.94 29.21 C401.84 22.03, 409.05 10.5, 419.11 1.08 M393.37 29.22 C401.05 20.62, 408.14 11.15, 419.53 0.62 M397.78 29.95 C407.28 19.52, 416.51 7.97, 425.1 -1.58 M396.7 30.1 C404.43 22.03, 409.87 16.19, 423.9 -0.16 M401.41 31.16 C413.26 21.02, 418.58 12.95, 428.78 0.17 M403.31 29.81 C411.15 20.86, 421.02 10.11, 428.61 0.42 M406.41 28.96 C415.09 23.18, 422.25 14.67, 428.47 8.6 M408.51 29.31 C413.24 23.85, 418.67 20.07, 429.26 7.06 M413.06 28.48 C416.35 24.73, 422.82 19.95, 426.73 11.82 M414.08 29.71 C418.41 24.54, 423.79 19.7, 428.53 12.38 M419.45 28.77 C422.3 28.5, 424.94 24.98, 429.24 19.72 M418.37 30.12 C421.46 27.56, 423.84 24.01, 428.82 18.63 M424.19 29.5 C425.5 29.12, 425.91 27.98, 428.53 25.06 M424.33 29.66 C425.4 28.87, 426.45 27.8, 428.6 25.45" stroke="#b2f2bb" stroke-width="0.5" fill="none"></path><path d="M0.25 -0.43 C102.95 -0.24, 206.12 -0.42, 427.94 0.07 M0.04 0.5 C157.45 0.09, 315.31 -0.24, 427.49 -0.14 M428.91 -0.77 C428.96 6.56, 427.85 14.97, 428.78 29.71 M427.43 -0.03 C427.96 8.88, 427.48 18.14, 427.22 29.17 M427.07 29.73 C270.15 29.57, 112.98 29.07, 0.59 29.2 M427.59 29.62 C296.49 29.47, 165.52 29.88, 0.13 29.91 M-1.51 30.95 C-1.73 21.04, 0.94 11.86, 0.99 -1.44 M-0.56 29.28 C1 19.38, -0.72 8.1, -0.56 -0.94" stroke="#1e1e1e" stroke-width="1" fill="none"></path></g><g transform="translate(122.85839697494976 478.6274863300914) rotate(0 67.140625 9.199999999999818)"><text x="0" y="0" font-family="Helvetica, Segoe UI Emoji" font-size="16px" fill="#1e1e1e" text-anchor="start" style="white-space: pre;" direction="ltr" dominant-baseline="text-before-edge">Span 2 (Service B)</text></g><g stroke-linecap="round" transform="translate(553.8147784840348 474.216934314376) rotate(0 80.0813690861387 14.284011651306173)"><path d="M-0.23 0.14 C51.13 0.26, 97.77 0.63, 158.26 -0.06 M0.13 0.7 C43.24 -0.14, 87.14 -0.7, 160.87 0.63 M158.85 -0.15 C160.14 9.22, 159.14 16.84, 158.78 28 M159.76 -0.42 C160.38 6.86, 161.07 13.91, 160.4 29.14 M160.08 28.88 C119.59 29.6, 79.14 30.23, 1.04 29.06 M159.86 27.81 C106.43 26.43, 51.93 27.76, 0.71 29.06 M0.35 27.45 C-1.03 23.62, 0.52 13.68, -0.56 -1.12 M-0.83 28.72 C0.38 21.8, -0.67 16.08, 0.4 -0.92" stroke="#1e1e1e" stroke-width="1" fill="none"></path></g><g transform="translate(558.8147784840348 479.30094596568233) rotate(0 67.140625 9.199999999999818)"><text x="0" y="0" font-family="Helvetica, Segoe UI Emoji" font-size="16px" fill="#1e1e1e" text-anchor="start" style="white-space: pre;" direction="ltr" dominant-baseline="text-before-edge">Span 6 (Service A)</text></g><g stroke-linecap="round" transform="translate(159.03769014542286 510.14416418800283) rotate(0 179.55831986997555 15.446354822630383)"><path d="M0 0 C0 0, 0 0, 0 0 M0 0 C0 0, 0 0, 0 0 M0.36 6.33 C1.34 5.22, 2.3 4.62, 5.75 0.75 M-0.21 6.38 C1.48 3.79, 3.77 1.77, 4.7 0.12 M1.13 12.66 C4.63 8.85, 4.69 5.39, 11.06 0.17 M-0.01 12.25 C2.71 9.47, 4.79 6.16, 10.75 0.18 M0.31 18.12 C2.75 12.1, 9.56 6.81, 17.6 1.17 M0.37 17.97 C5.45 11.57, 10.44 6.89, 15.59 -0.38 M-0.97 26.05 C8.54 13.16, 17.06 6.18, 20.38 -1.7 M0.5 23.12 C6.59 18.14, 10.66 10.86, 21.9 0.67 M-1.74 31.07 C4.5 25.52, 11.4 17.56, 26.86 0.89 M0.1 31.09 C7.26 22.34, 14.29 13.28, 25.55 0.4 M4.78 32.78 C12.05 22.13, 22.63 11.39, 33.17 -0.99 M2.94 32.94 C12.66 22.66, 22.19 12.71, 32.08 -0.72 M7.24 31.6 C16.19 25.38, 24.86 16.45, 37.35 1.13 M8.09 32.73 C17.4 23.45, 27.04 12.37, 37.32 0.42 M11.83 34.34 C18.54 25.5, 25.63 19.9, 42.95 -0.24 M13.06 32.66 C22.62 21.74, 33.2 11.43, 42.4 0.74 M16.64 33.88 C30.1 20.26, 40.81 7.54, 48.18 1.06 M19.52 34.24 C29.38 20.83, 40.26 9.02, 48.35 0.19 M24.67 33.71 C28.15 24.38, 36.47 19.69, 53.55 -1.51 M23.81 32.48 C31.12 24.86, 40.08 17.39, 53.17 -1.08 M28.94 33.64 C34.85 24.38, 44.6 16.28, 58.93 -1.59 M29.47 33.13 C34.96 27.04, 40.89 20.2, 58.37 0.48 M36.11 31.37 C44.17 23.72, 51.87 13.04, 63.25 1.73 M34.3 33.79 C42.59 24.22, 48.4 15.71, 64.04 -1.05 M39.64 32.16 C49.41 19.72, 61.16 7.11, 69.58 1.5 M38.94 33.15 C50.2 23.23, 59.31 13.24, 69.4 0.24 M47.39 34.39 C53.86 22.76, 64.44 12.91, 72.76 0.56 M45.92 32.16 C54.48 23.17, 64.6 11.5, 73.88 -0.85 M50.73 35.26 C56.37 25.05, 65.02 19.49, 80.56 1.17 M50.21 33.24 C60.63 22.69, 71.04 9.85, 79.71 0.66 M55.54 33.12 C63.05 26.07, 71.23 15.13, 85.24 -1.38 M55.66 34.18 C63.53 24.04, 72.42 13.59, 84.9 -0.95 M62.6 33.35 C72.36 22.03, 80.42 11.66, 88.74 -1.13 M60.83 33.58 C68.62 24.74, 74.7 18.03, 89.89 -0.86 M68 34.24 C75.41 25.4, 84.33 13.06, 94.27 0.13 M66.8 34.35 C78.25 20.06, 88.1 9.29, 96.55 -0.57 M70.09 33.38 C79.01 22.81, 86.55 14.57, 99.44 -1.43 M71.64 33.55 C78.67 24.78, 87.37 16.19, 100.78 -0.68 M78.65 33.24 C82.64 27.15, 90.45 17.2, 107.89 -2.14 M76.91 33.67 C83.68 25.05, 90.99 16.31, 105.57 0.27 M82.48 34.86 C88.43 25.99, 97.2 14.84, 110.4 -1.16 M82.76 33.76 C88.36 25.07, 96.35 18.47, 111.53 -0.98 M86.51 35.43 C97.05 22.75, 104.18 14.42, 115.89 1.88 M86.49 32.62 C97.53 21.51, 107.92 8.7, 115.34 -0.49 M91.47 33.89 C100.13 22.67, 110.61 11.23, 123.79 0.78 M93.6 34.03 C100.04 24.49, 108.07 15.95, 121.55 0.31 M98.99 32.65 C105.5 21.92, 117.22 12.46, 128.49 0.6 M98.35 33.88 C106.25 25.15, 113.41 14.97, 126.47 0.08 M103.23 35.11 C108.36 23.85, 116.8 18.16, 134.25 0.07 M102.83 33.41 C113.36 20.66, 124.96 10.04, 132.54 -0.53 M107.98 35.36 C116.36 27.99, 122.22 17.63, 136.37 1.21 M109.54 34.36 C115.86 24.23, 123.85 16.37, 136.9 0.36 M114.34 31.73 C125.42 21.07, 134.2 10.33, 144.82 -1.05 M114.42 32.16 C122.78 22.04, 133.25 13.21, 142.47 -1.01 M117.78 32.52 C128.79 25.38, 136.03 13.54, 149.32 -1.25 M119.42 33.16 C127.09 22.87, 136.61 13.36, 148.49 1.21 M123.82 33.52 C135.49 23.08, 142.59 12.66, 155.01 -1.77 M125.61 33.77 C131.57 26.54, 136.26 19.72, 153.61 -0.4 M129.13 31.7 C136.56 23, 148.71 12.63, 159.54 0.79 M129.64 33.65 C140.2 21.89, 150.22 11.39, 158.41 0.71 M137.15 34.8 C141.45 22.57, 150.84 13.79, 164.74 1.26 M134.92 32.93 C142.06 25.33, 148.89 18.03, 164.5 0.22 M139.22 35 C146.29 25.04, 154.67 17.75, 169.69 -0.51 M140.1 33.37 C151.58 19.68, 162.95 7.74, 169.07 0.14 M146.22 34.48 C152.93 26.47, 159.57 16.32, 174.38 -2.02 M146.17 33.56 C156.04 22.4, 164.49 11.66, 175.96 0.01 M149.67 35.11 C163.43 20.75, 174.6 7.86, 180.85 -0.46 M151.01 34.11 C158.01 25.13, 163.34 19.12, 180.2 0.04 M157.37 32.02 C167.82 22.01, 174.3 9.54, 184.75 0.87 M156.45 32.81 C166.6 22.5, 174.42 12.46, 185.09 0.34 M162.53 35.27 C170.96 21.35, 179.56 10.89, 192.55 -1.78 M160.84 33.86 C171.74 22.21, 180.34 13.66, 190.78 0.11 M166.72 32.19 C172.71 28.49, 178.83 19.69, 197.09 0.98 M167.46 33.78 C173.99 26.5, 179.88 19.22, 197.29 -1.19 M172.29 33.27 C179.59 26.38, 187.35 16.89, 202.76 1.36 M172.36 32.85 C181.39 22.16, 189.82 13.6, 201.1 -0.67 M178.8 34.06 C188.08 21.47, 196.42 12.15, 205.08 -0.06 M178.18 34.55 C186.2 24.04, 193.74 16.24, 206.21 -0.78 M181.91 33.48 C187.98 25.67, 195.63 18.58, 211.87 -0.64 M182.6 33.49 C191.32 23.39, 198.55 15.34, 212.71 -0.15 M186.6 35.53 C198.02 24.14, 205.89 15.28, 218.84 -2.1 M188.87 32.65 C197.32 22.12, 206.46 11.68, 217.81 -0.4 M194.73 34.83 C204.73 20.49, 211.98 12.53, 222.73 -0.83 M192.88 32.46 C202.01 22.14, 213.07 11.4, 222.44 -0.93 M198.21 34.31 C205.48 24.42, 215.31 13.95, 228.93 1.63 M197.75 34.1 C207 23.84, 216.47 14.89, 228.31 0.21 M202.57 34.8 C212.2 24.84, 218.06 17.69, 232.61 0.32 M204.82 32.61 C215.66 21.18, 225.48 7.7, 232.43 -0.42 M208.16 32.68 C221.62 22.74, 231.59 6.81, 237.69 1.17 M210.31 34.14 C215.81 25.88, 223.55 17.88, 237.57 0.25 M213.68 33.45 C224.9 20.65, 236.5 12.13, 245.22 -1.11 M214.3 33.05 C225.97 21.97, 237.03 9.19, 244.06 -0.77 M221.41 33.46 C231.78 21.43, 239.53 8.19, 249.85 -1.13 M219.33 33.21 C229.89 21.68, 240.06 9.76, 249.69 0.92 M224.74 33.4 C237.55 21.61, 246.96 8.61, 254.73 -0.48 M225.48 33.08 C234.11 23.56, 240.06 16.62, 254.03 -0.96 M229.36 32.05 C235.7 24.89, 242.46 21.55, 260.65 1.92 M230.87 32.99 C239.86 23.56, 249.47 12.1, 259.08 -0.14 M236.87 31.81 C243.68 22.37, 251.41 12, 265.7 -0.58 M236.81 32.24 C243.17 25.63, 252.23 17.05, 264.29 -0.71 M241.86 32.41 C250.69 23.06, 259.77 11.42, 270.38 -0.69 M240.27 34.36 C251.79 20.23, 262.97 8.25, 269.11 0.19 M247.62 32.43 C258.35 22.07, 268.79 6.71, 277.18 0.37 M247.02 32.26 C256.64 20.66, 267.48 9.22, 276.09 -0.54 M251.18 35.05 C263.51 22.24, 272.02 10.35, 279.79 -1.41 M252.14 33.43 C260.12 23.83, 267.31 15.89, 281.41 -0.73 M258.99 33.56 C267.23 23.76, 275.27 13.4, 286.63 0.69 M257.12 33.12 C269.04 19.9, 280.61 7.58, 285.96 0.24 M264.02 33.07 C274.26 19.57, 287.5 5.51, 290.06 1.87 M262.39 33.53 C269.89 24.73, 277.91 16.63, 291.89 0.65 M269.41 32.07 C279.07 19.37, 289.1 7.44, 297.94 -0.71 M268.4 32.99 C275.05 25.92, 280.24 18.14, 297.7 -0.44 M273.55 32.11 C281.82 22.4, 290.29 13.98, 302.81 1.83 M272.19 33.19 C282.96 22.47, 291.98 11.44, 302.76 0.1 M277.1 32.13 C289.47 22.99, 298.22 10.41, 309.46 -0.39 M277.78 33.05 C286.36 24.57, 297.12 12.37, 308.4 0.56 M283.36 34.37 C289.32 23.54, 297.31 16.72, 312.1 1.71 M284.02 34.19 C295.12 19.56, 307.41 5.89, 312.48 -0.37 M290.68 34.23 C296.61 22.69, 309.77 11.06, 317.96 1.68 M288.43 34.4 C298.45 21.07, 309.77 10.55, 318.43 -0.42 M295.46 34.63 C303.76 22.2, 312.17 10.19, 324.43 -0.69 M293.62 33.5 C302.1 23.03, 310.76 13.62, 323.83 -0.55 M301.24 31.67 C309.59 22.75, 320.57 8.65, 330.66 -1.91 M299.82 34.63 C307.23 24.81, 315.04 14.24, 329.45 0.22 M306.33 32.22 C315.07 20.15, 328.68 7.72, 334.72 -1.01 M304 33.33 C316.22 20.4, 327.25 8.49, 333.83 0 M308.95 35.56 C319.07 23.56, 328.64 11.28, 341.2 -2.03 M310.37 32.82 C315.85 26.71, 324.37 18.19, 340.37 -0.75 M314.85 35.03 C326.84 22.36, 338.87 8.27, 346.35 -0.31 M315.49 33.1 C325.05 22.76, 334.78 11.4, 343.83 -0.06 M322.44 31.59 C330.62 22.02, 338.4 14.66, 349.03 -0.2 M320.78 34.23 C330.05 21.27, 341.24 11.21, 348.77 -0.54 M326.39 31.52 C337.81 19.03, 348.75 5.11, 355.13 -1.11 M325.66 33.44 C336.11 21.73, 345.28 11.47, 355.41 0.12 M330.77 31.99 C339.73 21.72, 350.73 11.73, 361.97 0.33 M332.03 34.36 C337.48 26.01, 345.73 16.94, 359.45 0.56 M336.7 34.72 C342.48 27.25, 347.58 19.91, 359.39 7.43 M337.39 32.2 C343.34 24.57, 350.29 17.69, 360.56 6.44 M343.43 31.57 C346.86 29.9, 348.37 23.01, 361.19 11.97 M341.37 32.94 C347.28 28.15, 352.32 20.74, 359.37 12.58 M347.98 34.15 C350.6 29.91, 355.56 26.22, 361.07 18.44 M346.86 32.51 C350.75 28.04, 354.18 24.92, 360.72 18.71 M353.52 32.49 C356.14 30.48, 357.89 27.54, 358.71 24.83 M352.42 33.7 C355.05 30.78, 357.9 27.57, 360.09 25.42" stroke="#b2f2bb" stroke-width="0.5" fill="none"></path><path d="M0.56 0.7 C90.21 -0.66, 178.44 0.69, 359.65 0.12 M-0.62 -0.02 C130.48 -0.18, 260.95 -0.54, 358.96 -0.31 M359.03 -0.29 C358.57 9.66, 361.19 15.57, 359.94 30.18 M359.98 -0.85 C358.57 8.92, 358.94 17.85, 359.72 31.14 M359.84 30.45 C262.37 30.92, 168.89 32.21, 0.45 31.62 M359.15 30.96 C267.74 28.39, 176.44 28.78, 0.36 30.43 M-0.18 32.88 C-0.02 24.67, 0.45 15.19, -1.89 -1.05 M-0.89 29.94 C0.05 24.62, 1.08 18.34, 0.37 0.35" stroke="#1e1e1e" stroke-width="1" fill="none"></path></g><g transform="translate(164.03769014542286 516.3905190106343) rotate(0 67.140625 9.199999999999818)"><text x="0" y="0" font-family="Helvetica, Segoe UI Emoji" font-size="16px" fill="#1e1e1e" text-anchor="start" style="white-space: pre;" direction="ltr" dominant-baseline="text-before-edge">Span 3 (Service B)</text></g><g stroke-linecap="round" transform="translate(199.94639074651423 549.7119731618404) rotate(0 113.19146360775949 16.157752495986642)"><path d="M0 0 C0 0, 0 0, 0 0 M0 0 C0 0, 0 0, 0 0 M-0.4 6.33 C1.84 3.6, 3.15 1.37, 5.68 0.48 M-0.51 6.44 C1.34 4.68, 2.15 3.12, 5.31 0.42 M1.68 12.71 C3.99 6.15, 8.69 3.67, 9.46 0.59 M-0.56 11.87 C4.66 8.23, 7.52 3.03, 10.52 -0.71 M-1.22 16.46 C3.52 13.42, 5.15 10.13, 17.15 -1.13 M0.13 18.72 C4.92 13.5, 8.06 7.61, 14.8 0.35 M1.95 23.32 C8.45 16.31, 15.04 4.01, 21.15 0.88 M-0.03 24.12 C5.94 15.82, 14.02 8.71, 21.05 -0.22 M1.75 29.51 C7.31 20.7, 14.47 11.15, 26.04 -0.33 M-0.43 30.8 C9.39 20.86, 16.39 10.3, 26.76 1.15 M1 34.79 C9.09 24.55, 18.62 17.73, 32 -0.46 M2.62 32.87 C8.67 26.02, 14.15 19.89, 31.1 0.12 M6.91 34.1 C11.9 28.87, 21.08 18.52, 36.85 0.56 M7.06 34.69 C17.07 21.88, 28.35 10.41, 36.8 0.17 M12 34.46 C23.62 23.87, 33.94 9.94, 40.96 -1.06 M13.54 33.15 C22.09 22.14, 32.15 10.61, 42.62 0.3 M16.34 34.24 C26.04 26.73, 34.15 16.78, 45.6 -0.55 M17.28 34.46 C24.81 27.17, 30.1 18.96, 47.28 0.95 M25.18 35.34 C29.21 23.36, 39.91 14.83, 53.82 -0.26 M23.18 33.7 C35.3 20.13, 46.24 7.86, 53.85 -0.26 M27.29 35.58 C36.43 25.26, 45.68 13.69, 56.86 -1.27 M27.79 34.68 C38.92 23.15, 46.35 13.31, 57.77 -0.68 M35.22 33.8 C40.26 27.78, 45.77 18.81, 62.96 1.02 M33.08 34.46 C43.03 24.28, 53.52 13.06, 63.21 -0.84 M38.89 34.47 C45.44 26.76, 51.93 15.37, 67.79 1.2 M39.66 33.43 C50.24 21.31, 60.36 9.01, 69.07 -0.62 M43.32 36.38 C50.87 26.45, 60.79 17.44, 75.3 0.3 M43.99 35.4 C52.82 24.47, 61 15.2, 75.36 0.55 M48.81 33.69 C60.1 21.78, 73.36 7.26, 80.1 2.11 M50.16 34.1 C57.57 26.19, 64.17 17.25, 79.19 -0.49 M53.3 36.35 C59.74 26.67, 67.94 19.83, 84.33 1.57 M53.87 35.04 C62.09 25.23, 70.18 15.99, 85.16 -0.81 M61.29 34.45 C67.25 23.11, 76.18 14.05, 88.05 1.14 M60.79 33.32 C69.39 24.79, 78.07 14.78, 89.36 0.39 M66.17 34.63 C72.94 27.35, 78.07 17.24, 94.09 -0.8 M64.58 33.42 C74.24 24.71, 82.15 15.07, 95.72 -0.37 M71.13 32.4 C79.46 21.76, 91.68 12.14, 102.47 -1.59 M71.27 33.03 C79.87 24.32, 87.22 16.38, 100.04 0.96 M75.51 32.58 C85.95 24.71, 94.11 11.49, 107.22 -1.94 M75.21 34.87 C83.04 27.14, 88.14 19.12, 106.34 -0.28 M83.69 33.63 C91.01 24.74, 100.72 12.18, 110.77 -1.52 M81.53 34.46 C92.22 22.26, 102.4 8.15, 110.89 0.45 M87.47 36.03 C94.13 25.78, 105.28 14.55, 116.21 2.15 M86.05 33.98 C96.42 24.22, 103.31 14.63, 115.9 1.33 M90.91 34.67 C102.81 19.35, 114.29 8.16, 120.9 -1.66 M91.73 34.08 C103.88 20.31, 113.7 7.42, 122.8 0.36 M96.76 35.21 C103.63 26.15, 110.89 17.56, 126.14 -0.3 M96.61 33.65 C105.12 26.48, 111.96 17.12, 127.44 -0.65 M103.27 34.47 C110.82 27.26, 114.31 18.67, 133.38 -0.58 M102.24 33.67 C114.15 21.21, 125.73 8.47, 131.88 0.5 M106.64 32.81 C120 22.34, 127.61 10.77, 138.63 -0.4 M107.62 35.03 C114.35 27.02, 120.15 19.53, 138.29 0.22 M113.83 34.45 C120.74 25.39, 131.8 15.08, 141.3 -0.4 M113.64 34.3 C120.37 27.16, 126.16 19.2, 143.45 -1.07 M116.96 35.94 C122.75 26.16, 131.2 21.03, 146.57 0.45 M119.03 33.59 C128.41 21.54, 138.99 11.27, 148.63 0.9 M126.19 34.44 C130.09 24.9, 139.51 16, 154.29 1.18 M124.75 34.3 C136.27 19.79, 147.51 7.29, 154.07 0.01 M128.1 36.17 C137.79 27.55, 142.07 19.43, 157.36 -0.74 M130.01 35.03 C136.21 26.44, 142.33 18.89, 158.87 -0.36 M134.54 32.72 C144.22 21.96, 155.48 9.3, 162.58 -1.09 M134.61 33.29 C141.49 26.75, 149.65 18.58, 163.48 0.38 M141.02 33.49 C148.07 25.58, 154.63 15.84, 169.01 -0.49 M138.95 33.39 C149.25 23.7, 156.02 13.39, 169.61 -0.05 M142.95 34.75 C153.81 27.53, 161.19 18.55, 176.92 -0.03 M145.79 34.93 C155.22 22.69, 164.47 11.57, 174.68 -1.06 M149.25 32.32 C158.59 23.63, 169.88 10.91, 178.07 -0.9 M151.46 34.94 C162.28 21.42, 171.35 10.32, 179.72 0.65 M156.05 34.18 C165.4 23.25, 174.81 13.11, 184.65 -0.02 M155.08 33.89 C161.73 26.6, 167.54 21.35, 185.86 -1.1 M162.87 33.56 C170.54 24.04, 181.73 12.25, 191.64 -1.64 M160.36 34.26 C170.37 23.84, 179.69 13.41, 190.24 -0.17 M167.03 33.35 C175.06 24.13, 180.32 15.27, 197.67 -1 M165.51 34.38 C176.58 23.53, 185.08 11.41, 196.45 -0.26 M172.52 34.49 C183.14 21.44, 194.71 10.29, 199.41 0.07 M171.7 34.21 C180.14 24.76, 187.71 17.19, 200.46 0.86 M176.34 36.29 C186.87 20.02, 201.29 7.39, 208.43 1.52 M176.98 35.16 C186.22 24.81, 194.77 14.99, 207.08 -0.79 M181.41 32.86 C193.16 22.61, 203.61 7.61, 213.61 1.45 M182.74 33.91 C191.85 23.31, 201.58 11.58, 211.87 0.38 M186.95 33.46 C198.87 24.08, 208.76 12.67, 217.96 0.48 M187.61 34.24 C193.92 27.81, 200.02 20.04, 217.6 -0.64 M193.31 34.87 C199.47 27.07, 207.97 16.81, 221.05 -1.85 M193.96 34.79 C200.26 25.93, 209.97 15.43, 222.19 0.34 M196.41 33.77 C205.79 24.53, 216.05 17.47, 227.19 2 M197.75 34.94 C206.73 23.13, 216.66 12.52, 228.45 1.27 M204.56 35.12 C213.86 23.09, 224.37 13.6, 229.19 7.04 M203.06 34.55 C210.69 26.87, 216.14 19.73, 227.45 6.72 M208.85 32.54 C214.5 28.05, 220.78 19.29, 228.41 11.21 M207.96 33.84 C212.47 30.27, 216.26 25.67, 226.07 12.85 M216.05 32.67 C220 29.83, 223.21 21.67, 227.26 19.14 M214.97 33.16 C218.25 29.31, 223.8 24.36, 227.11 18.53 M219.08 35.05 C222.25 31.52, 224.48 28.62, 227.36 25.4 M219.12 34.6 C221.06 32.42, 222.42 30.6, 227.14 25.8 M225 34.12 C225.18 33.47, 225.88 32.08, 227.32 31.12 M225.12 34.09 C225.84 33.06, 226.67 32.05, 227.68 30.75" stroke="#b2f2bb" stroke-width="0.5" fill="none"></path><path d="M0.23 0.34 C80.73 -1.44, 164.55 -1.77, 227.86 1.62 M-0.07 -0.75 C53.9 -1.01, 107.37 -0.63, 226.62 0.76 M225.29 -0.02 C224.78 10.09, 227.53 18.91, 224.87 32.08 M226.76 0.83 C227.24 7.22, 226.4 13.3, 226.78 31.99 M226.41 33.23 C138 30.39, 49.43 32.26, 0.25 31.78 M227.2 32.54 C150.17 31.02, 73.21 30.75, -0.38 32.85 M-0.92 34.18 C0.38 23.46, 0.74 13.17, 1.5 -0.42 M0.74 33.18 C-0.63 23.98, 0.57 14.74, -0.56 0.28" stroke="#1e1e1e" stroke-width="1" fill="none"></path></g><g transform="translate(204.94639074651423 556.6697256578282) rotate(0 107.1484375 9.199999999999818)"><text x="0" y="0" font-family="Helvetica, Segoe UI Emoji" font-size="16px" fill="#1e1e1e" text-anchor="start" style="white-space: pre;" direction="ltr" dominant-baseline="text-before-edge">Span 4 - DB call Y (Service B)</text></g><g stroke-linecap="round" transform="translate(200.5652866235796 596.2586457265807) rotate(0 113.19146360775949 23.5)"><path d="M0 0 C0 0, 0 0, 0 0 M0 0 C0 0, 0 0, 0 0 M-1.2 25.98 C7.76 17.4, 13.1 11.45, 22.51 -1.83 M1.07 23.1 C6.85 15.67, 13.28 8.35, 21.48 -0.14 M2.21 49 C16.52 29.75, 27.97 16.95, 42.67 -1 M0.36 46.63 C13.47 31.7, 28.57 16.29, 42.39 -1.1 M21.3 48.81 C31.9 34.97, 45.18 20.54, 64.49 1.79 M20.84 48.6 C33.82 34.22, 46.88 21.14, 63.87 0.36 M41.29 49.62 C53.62 36.63, 62.23 26.32, 84.44 0.05 M43.54 47.44 C59.39 30.36, 74.1 11.26, 84.26 -0.69 M63.14 47.07 C81.5 31.35, 96.42 9.71, 105.79 0.47 M65.3 48.53 C73.9 36.57, 84.79 24.95, 105.67 -0.45 M84.29 48.17 C99.71 30.48, 115.55 17.08, 128.29 -0.73 M84.9 47.77 C101.21 31.54, 116.8 13.54, 127.13 -0.39 M108.29 47.75 C123.11 30.65, 135.33 12.28, 149.2 -1.18 M106.21 47.5 C121.28 30.98, 135.83 14.02, 149.03 0.87 M127.24 48.01 C144.87 30.76, 158.98 12.37, 169.69 -0.21 M127.97 47.7 C139.91 34.45, 149.13 23.74, 168.99 -0.68 M148.13 46.23 C156.96 36.2, 166.26 29.95, 191.88 1.77 M149.64 47.18 C162.55 33.07, 176.22 16.94, 190.32 -0.3 M171.25 46.32 C181.76 32.81, 193.13 18.24, 212.55 -0.4 M171.19 46.75 C180.91 36.52, 193.18 24.24, 211.14 -0.54 M192.52 46.49 C204.59 33.42, 216.86 18.1, 230.88 2.07 M190.93 48.44 C206.29 29.96, 221.25 13.62, 229.61 2.96 M213.89 46.84 C220.04 41.67, 225.87 31.61, 231.65 28.36 M213.29 46.67 C218.77 39.81, 225.39 33.22, 230.56 27.45" stroke="#a5d8ff" stroke-width="2" fill="none"></path><path d="M0.6 1.65 C75.16 -2.29, 150.04 -1.72, 227.98 -1.64 M-0.84 0.45 C72.1 0.77, 142.95 2.4, 226.46 -0.02 M226.29 -1.51 C226.13 11.79, 226.05 19.98, 227.15 48.24 M227.04 0.08 C227.1 9.73, 226.74 19.6, 227.34 46.07 M226.25 46.97 C175.53 48.45, 125.3 46.76, 1.23 48.08 M226.3 46.61 C156.98 48.12, 87.15 49.52, -0.19 46.34 M1.36 47.39 C1.62 31.09, 0.9 17.76, -1.88 0.23 M0.74 47.88 C0.83 33.6, 0.37 22.26, -0.75 -0.49" stroke="#1e1e1e" stroke-width="4" fill="none"></path></g><g transform="translate(205.5652866235796 601.358645726581) rotate(0 86.71484375 18.399999999999636)"><text x="0" y="0" font-family="Helvetica, Segoe UI Emoji" font-size="16px" fill="#1e1e1e" text-anchor="start" style="white-space: pre;" direction="ltr" dominant-baseline="text-before-edge">Span 5 - EXPLAIN Plan </text><text x="0" y="18.4" font-family="Helvetica, Segoe UI Emoji" font-size="16px" fill="#1e1e1e" text-anchor="start" style="white-space: pre;" direction="ltr" dominant-baseline="text-before-edge">(pganalyze collector)</text></g><g stroke-linecap="round" transform="translate(726.1645288749341 472.0659283867499) rotate(0 138.23972496646184 15.180308623820565)"><path d="M0 0 C0 0, 0 0, 0 0 M0 0 C0 0, 0 0, 0 0 M0.1 6.91 C1.27 5.26, 1.88 2.86, 4.56 1 M0.06 6.71 C0.88 5.25, 2.56 3.55, 4.9 0.15 M-0.42 10.81 C4.55 8.43, 6.34 3.91, 9.2 -0.06 M0.28 12.26 C2.16 8.81, 5.74 5.05, 11.05 -0.32 M0.88 19.87 C6.12 14.96, 10.04 8.95, 14.64 0.44 M0.29 18.84 C3.5 13.34, 6.4 10.74, 16.37 1.07 M0.18 22.51 C7.25 17.67, 14.06 11.79, 22.43 1.77 M1.07 24.25 C8.27 15.18, 15.06 7.92, 21.48 -0.99 M0 30.02 C6.18 21.22, 17.62 11.33, 26.11 -0.28 M0.79 29.49 C9.45 20.04, 19.62 9.69, 25.39 0.35 M7.24 30.51 C15.29 21.92, 23.38 11.73, 31.95 1.24 M5.42 29.98 C12.98 22.36, 19.34 14.19, 31.94 -0.73 M10.48 32.35 C17.53 23.12, 25.73 12.65, 35.79 2.11 M11.56 31.03 C16.18 23.27, 21.37 17.43, 36.36 0.38 M15.32 31.61 C25.51 20.67, 34.39 10.29, 42.59 0.47 M17.27 30.82 C24.54 21.45, 31.55 14.15, 42.45 -0.05 M20.27 31.8 C29.42 20.58, 36.75 13.89, 47.59 -1.47 M21.38 29.71 C29.13 20.78, 35.58 13.82, 47.08 1.07 M27.69 30.22 C32.25 24.74, 40.55 13.83, 51.95 0.13 M25.89 30.11 C31.02 25.42, 37.83 17.99, 53.23 -1.17 M32.23 31.81 C38.41 19.78, 46.68 11.95, 59.85 0.43 M31.83 29.94 C37.56 24.41, 44.18 16.06, 58.63 -0.44 M37.23 31.06 C44.57 20.65, 57.37 7.67, 62.11 -0.54 M37.07 30.1 C46.7 19.72, 55.12 10.07, 64.74 -0.08 M41.67 30.36 C52.03 20.52, 62.61 9.51, 69.34 -0.17 M42.76 30.35 C50.6 20.61, 60.24 10.24, 69.38 0.2 M49.32 29.64 C58 16.81, 70.17 5.91, 75.55 0.26 M47.89 30.54 C55.81 21.67, 63.62 11.95, 73.75 -0.57 M52.34 32 C60.75 22.76, 65.41 15.63, 79.27 1.31 M52.31 29.77 C62.27 18.74, 71.56 9.8, 79 0.58 M56.42 29.3 C67.65 20.32, 79.71 8.55, 83.2 -1.1 M57.37 31.61 C64.54 22.43, 72.33 14.07, 85.29 -0.22 M64.42 31.84 C68.18 24.05, 72.98 19.02, 91.3 2.01 M62.9 31.26 C74.58 19.36, 84.02 7.64, 90.4 -0.51 M69.44 29.94 C78.98 20.16, 83.91 10.57, 96.45 -1.71 M67.83 30.74 C77.89 20.81, 85.99 11.98, 94.7 -0.35 M74.52 31.57 C81.46 22.66, 85.6 15.3, 101.52 -0.34 M75.22 30.1 C79.28 22.3, 86.3 16.33, 99.8 0.93 M77.71 32.01 C84.09 22.66, 90.05 17.47, 107.09 -0.06 M78.85 30.57 C86.24 22.93, 92.21 16.1, 105.57 -0.11 M83.71 31.42 C91.92 22.97, 99.86 14.38, 112.46 0.51 M84.26 29.79 C90.99 23.08, 97.25 16.38, 110.7 0.15 M89.01 32.53 C94.57 24.71, 99.54 18.58, 114.71 0.65 M89.31 30.96 C97.95 21.55, 107.44 10.63, 117.13 0.35 M97.49 30.19 C104.93 19.04, 115.73 9.99, 121.07 -0.6 M95.26 30.05 C101 23.57, 108.28 17.11, 121.87 -0.41 M101.55 29.08 C110.21 20.19, 117.06 12.95, 125.31 1.51 M101.34 30.98 C108.65 23.39, 114.8 14.9, 126.87 0.84 M105.77 29.26 C116.18 20.58, 122.41 13.7, 130.75 -0.27 M105.78 30.8 C111.75 22.82, 118.71 15.27, 133.38 0.92 M111.99 31.82 C121.6 20.37, 125.94 10.74, 139.36 0.48 M110.4 30.92 C121.51 19.47, 132.54 8.19, 136.56 -0.36 M114.94 28.53 C126.5 18.89, 138.05 4.75, 143.36 1.45 M117.64 30.22 C125.14 20.69, 132.92 12.84, 142.55 -0.97 M123.41 31.45 C130.53 19.21, 138.08 9.71, 146.4 1.27 M121.18 30.3 C131.46 19.24, 142.02 5.52, 148.96 0.5 M127.81 30.52 C133.76 21, 142.26 12.35, 155.15 1.08 M126.94 30.66 C135.32 21.8, 143.86 12.86, 154 0.03 M133.34 31.24 C143.22 22.09, 151.32 10.22, 160.44 2.2 M131.68 29.85 C140.06 21.14, 148.66 12.18, 159.05 -0.62 M138.95 29.01 C144.57 22.5, 156.65 10.11, 164.86 -0.29 M137.41 31.47 C145.86 21.02, 154.95 10.73, 163.65 -0.76 M141.74 31.02 C151.01 19.27, 163.35 10.62, 167.91 0.13 M143.19 29.53 C148.29 23.04, 155.5 16.2, 170.14 0.47 M149.37 30.12 C155.87 25.31, 160.88 16.99, 173.62 -1.01 M149.02 29.96 C155.33 21.47, 164.25 13.2, 174.67 -0.79 M155.02 31.19 C161.11 22.48, 165.19 17.98, 179.68 -1.51 M154.25 30.49 C159.24 22.89, 164.68 17.08, 179.79 0.17 M158.53 28.77 C166.72 25.14, 169.37 18.91, 185.03 1.11 M158.08 29.9 C166.93 20.41, 178.03 8.65, 185.52 -0.3 M166.02 28.7 C174.17 17.7, 183.84 8.61, 191.05 -0.74 M164.7 31.13 C172.18 22.67, 177.41 15.67, 189.87 1.1 M170.99 29.72 C177.27 22.63, 184.17 13.31, 197.12 0.85 M169.81 30.55 C175.07 23.72, 182.39 16.99, 195.95 -0.31 M174 29.08 C184.51 18.45, 192.42 9.75, 201.78 -1 M175.67 31.06 C181.91 23.78, 187.42 17.62, 200.51 0.11 M179.74 32.25 C191.94 19.47, 201.01 4.74, 206.34 1.55 M179.71 31.37 C189.16 19.98, 198.16 10.58, 206.99 -0.61 M184.69 30.42 C192.52 23.63, 196.63 17, 212.03 0.82 M185.56 31.1 C195.68 19.68, 204.32 9.93, 212.11 0.25 M190.21 30.23 C199 23.37, 204.8 16.33, 215.6 -0.9 M191.59 30.04 C197.63 22.61, 205.26 13.72, 216.93 0.21 M198.23 31.34 C204.93 17.9, 216.47 6.87, 222.45 -1.61 M196.04 29.29 C206.58 19.88, 216.02 7.06, 223.39 0.81 M200.28 32.09 C212.48 18.87, 221.18 5.38, 226.24 -2.04 M201.51 30.48 C208.08 22.43, 214.51 15.83, 227.38 -1.21 M205.21 31.07 C215.99 17.02, 225.25 8.27, 234.07 -0.03 M206.08 30.91 C216.15 19.83, 226.33 8.7, 233.32 -0.72 M212.26 28.82 C219.51 23.82, 225.86 13.81, 237.38 -0.11 M211.83 30.8 C219.82 22.2, 228.44 13.06, 238.54 -0.26 M218.67 29.38 C224.18 21.53, 229.68 15.95, 244.4 0.34 M217.93 30.42 C225.49 21.04, 231.56 13.98, 243.16 -0.62 M220.88 29.97 C228.59 23.28, 235.45 15.46, 248.54 0.99 M223.18 31.34 C230.89 20.05, 241.1 10.73, 247.88 0.63 M230.06 30.59 C234.95 18.85, 244.73 8.62, 255.37 0.88 M229.11 29.54 C233.87 23.96, 240.39 16.27, 254.44 -0.96 M233.33 31.66 C241.04 23.05, 248.08 14.15, 259.72 0.14 M232.48 30.67 C239.51 23.37, 243.87 16.31, 260.17 0.5 M237.29 31.61 C247.09 16.35, 260.42 6.26, 265.35 1.51 M238.42 29.18 C245.12 22.59, 253.02 13.85, 265.01 0.42 M245.23 28.55 C255.86 20.76, 265.2 7.35, 270.01 0.05 M242.93 29.56 C251.43 22.05, 257.86 13.84, 270.13 0.88 M248.69 29.88 C257.14 23.35, 264.55 13.89, 277.14 0.71 M249.97 29.47 C257.42 20.95, 264.93 12.37, 274.95 -0.12 M252.64 29.9 C261.68 18.49, 272.06 8.05, 278.97 2.26 M254.01 31 C259.73 23.82, 264.9 18.14, 277.77 2.76 M258.39 32.19 C266.15 23.92, 272.69 18.57, 278.78 7.85 M260.45 30.54 C264.15 25.05, 268.25 20.63, 279.44 8.33 M264.05 31.5 C271.49 24.39, 275.65 20.72, 279.99 14.16 M265.47 30.23 C268.63 27.7, 271.03 22.81, 279.83 13.63 M269.26 31.35 C272.12 28.14, 272.99 27.29, 278.3 21.46 M269.91 31.23 C272.8 27.6, 274.74 25.07, 279.14 20.08 M275.9 30.68 C276.91 29.37, 278.13 27.91, 279.26 26.5 M275.64 30.42 C276.75 29.27, 277.58 28.57, 279.1 26.64" stroke="#ffc9c9" stroke-width="0.5" fill="none"></path><path d="M1.03 0.3 C81.56 0.1, 160.45 -1.31, 276.2 1.14 M0.5 0.42 C75.92 -2.11, 153.08 -1.82, 276 0.18 M276 -1.53 C277 5.05, 275.69 14.16, 275.83 30.8 M275.69 -0.25 C275.69 10.34, 275.88 21.64, 276.83 30.68 M275.43 29.68 C209.29 32.75, 140 30.82, 1.18 31.51 M277.11 30.93 C221.35 30.06, 165.5 29.82, -0.52 30.54 M-1.89 29.72 C1.02 20.94, -1.94 11.84, 0.58 -1.89 M-0.78 30.77 C-0.51 19.76, 0 9.98, 0.96 0.74" stroke="#1e1e1e" stroke-width="1" fill="none"></path></g><g transform="translate(731.1645288749341 478.0462370105706) rotate(0 67.58203125 9.199999999999818)"><text x="0" y="0" font-family="Helvetica, Segoe UI Emoji" font-size="16px" fill="#1e1e1e" text-anchor="start" style="white-space: pre;" direction="ltr" dominant-baseline="text-before-edge">Span 7 (Service C)</text></g><g stroke-linecap="round" transform="translate(767.3438220454073 509.23520606436796) rotate(0 113.43515535102961 15.429542017833228)"><path d="M0 0 C0 0, 0 0, 0 0 M0 0 C0 0, 0 0, 0 0 M-0.74 5.94 C1.21 4.81, 3.02 2.29, 4.62 1.01 M0.12 6.35 C1.64 3.87, 3.89 2.05, 5.01 0.22 M-0.79 12.21 C0.97 9.29, 4.32 7.58, 9.54 0.27 M0.07 11.59 C4.11 7.81, 7.06 4.42, 11.39 0.37 M0.9 19.68 C4.59 11.67, 10.12 4.25, 14.8 1.17 M-1.05 19.2 C5.99 13.17, 10.4 5.54, 15.4 0.28 M2.07 25.33 C5.97 20.54, 10.33 13.74, 20.56 1.54 M0.65 24.48 C6.94 15.64, 13.39 9.05, 22.12 -0.07 M1.92 29.67 C7.38 21.54, 15.85 12.08, 25.47 1.87 M0.85 30.89 C4.45 24.44, 10.84 18.78, 26.09 1.09 M3.77 34.4 C12.16 23.54, 20.53 12.1, 31.1 -0.56 M3.29 32.65 C11.21 22.87, 19.61 13.36, 31.41 -0.18 M6.75 34.18 C18.56 21.93, 29.43 6.1, 38.83 2.1 M7.12 33.93 C17.94 21.78, 29.28 9.24, 36.5 -0.22 M13.36 34.19 C24.64 20.99, 35.09 6.12, 41.4 1.84 M13.95 33.95 C24.26 20.72, 34.97 9.08, 43.21 -0.64 M19.9 33.79 C29.2 19.65, 39.51 7.24, 48.11 0.44 M17.65 34.2 C24.83 26.9, 31.33 18.23, 47.29 0.94 M25.44 31.09 C31.06 24.08, 38.16 13.24, 52.39 -0.9 M24.8 32.62 C31.41 24.05, 37.99 17.75, 53.56 -0.01 M28.94 32.64 C41.87 21.54, 49.49 7.14, 56.96 0.05 M29.24 32.78 C37.38 24.01, 44.7 15.3, 58.38 0.36 M36.89 31 C42.65 22.1, 54.08 10.77, 65.43 0.16 M35.14 33.08 C42.47 25.42, 49.01 16.53, 62.79 -0.63 M40.46 34.41 C49.22 22.9, 58.24 13.79, 67.46 0.62 M39.57 33.94 C49.5 23.28, 58.46 12.77, 68.99 1.06 M47.07 32.37 C53.84 25.52, 59.9 18.22, 74.34 0.5 M45.55 32.97 C52.94 23.12, 61.26 13.15, 73.5 -0.65 M49.55 33.33 C61.36 21.79, 73.63 9.03, 80.15 -1.57 M50.63 34.19 C57.21 25.87, 65.48 18.23, 79.62 -0.74 M57.09 34.98 C60.58 24.78, 68.69 18.66, 85.35 -1.82 M55.26 33.91 C67.66 20.3, 78.09 6.88, 84.57 0.04 M59.68 34.2 C73.52 22.68, 84.98 6.78, 89.97 -1.68 M60.68 34.23 C72.92 19.21, 84.17 6.53, 90.03 0.42 M64.48 32.91 C74.45 23.36, 81.73 16.42, 97.16 -2.19 M66.72 34.46 C74.07 23.04, 83.58 13.11, 95.18 -0.26 M70.8 32.4 C83.07 20.78, 91.23 10.81, 102.35 1.67 M72.26 33.02 C79.42 24.93, 87.86 15.55, 101.28 -0.8 M75.23 35.04 C88.71 21.41, 97.3 9.01, 104.88 -1.44 M77.72 32.67 C84.51 24.03, 93.73 14.42, 106.76 -1.01 M83.27 33.84 C94 21.59, 101.9 7.58, 113.11 -1.56 M82.19 33.69 C89.43 24.73, 96.54 16.95, 111.72 -0.5 M86.43 34.1 C97.43 20.56, 110.96 7.78, 115.41 -1.08 M87.96 33.05 C98.22 22.1, 107.81 10.47, 116.4 1.28 M93.9 35.01 C100.96 22.62, 109.04 11.93, 120.54 -0.84 M93.58 33.62 C101.58 23.22, 110.19 14.87, 120.96 0.43 M97.62 35.34 C102.81 27.27, 110.12 16.9, 126.06 1.7 M98.43 33.34 C107.63 22.45, 117.62 10.18, 127.41 0.07 M103.94 34.98 C108.96 24.48, 116.79 15.55, 133.34 -1.1 M103.8 32.4 C115.35 22, 125.27 8.69, 131.91 0.29 M106.74 32.61 C120.73 21.63, 131.24 8.25, 136.61 -1.48 M109.42 34.48 C117.62 21.31, 129.4 11.09, 137.43 -0.69 M115.06 31.34 C120.98 27.21, 127.19 17.93, 142.66 1.32 M114.54 33.85 C122.58 22.02, 132.47 12.08, 142.75 0.66 M118.21 32.3 C127.64 23.09, 141.49 11.04, 147.93 -1.22 M118.49 32.65 C128.58 24.03, 135.76 15.25, 149.03 0.39 M125.39 32.29 C135.73 23.65, 143.68 13.13, 154.11 -1.38 M125.74 33.99 C135.47 21.08, 146.01 8.55, 152.93 0.27 M130.86 33.37 C141.13 23.87, 149.35 12.4, 157.32 -1.5 M130.46 33.23 C137.24 24.63, 144.24 18.31, 159.08 0.94 M137.49 32.55 C142.33 25.64, 148.52 19.88, 163.69 -0.42 M135.61 33.07 C145.51 20.15, 157.49 8.31, 165.21 -0.88 M141.97 35.34 C148.87 22.36, 158.41 13.36, 170.53 0.21 M141.47 32.83 C147.59 26.72, 152.36 19.15, 168.69 0.8 M146.35 33.43 C152.27 23.06, 161.36 16.74, 173.89 1.52 M146.69 33.56 C152.33 25.19, 158.28 18.84, 175.6 0.41 M151.25 34.29 C160.39 20.52, 168.91 11.55, 181.74 1.04 M150.9 33.28 C160.01 23.19, 168.55 12.85, 179.29 0.03 M155.41 34.79 C161.7 27.42, 169.08 20.25, 185.59 -1.66 M157.75 32.13 C163.27 25.58, 170.61 18.06, 185.43 0.56 M160.86 34.86 C168.59 25.35, 173.54 17.37, 189.58 0.65 M161.45 33.61 C171.69 21.73, 183.01 7.51, 190.58 0.91 M168.52 31.07 C175.37 25.75, 180.43 14.91, 198.13 0.5 M167.87 33.7 C175.6 23.27, 184.78 13.99, 197.27 -0.8 M171.37 34.27 C179.79 24.38, 184.72 17.53, 201.09 1.3 M173.07 34.1 C182.21 20.73, 194.86 8.92, 200.53 -0.06 M177.36 31.99 C187.78 22.49, 200.33 9.38, 205.3 -0.99 M177.74 34.14 C188.33 20.87, 198.65 9.31, 207 -0.8 M181.83 34.29 C191.92 23.72, 201.78 11.66, 211.78 -0.23 M183.02 34.23 C194.17 20.67, 204.75 7.9, 211.41 -0.17 M187.97 35.62 C194.16 23.4, 203.71 13.6, 219.31 1.47 M188.32 33.29 C194.68 25.8, 203.37 17.36, 217.76 0.62 M193.7 33.24 C204.1 19.86, 216.05 10.85, 221.58 -0.56 M193.81 32.69 C200.34 26.86, 206.5 18.32, 221.76 -0.49 M196.87 32.81 C207.53 19.39, 219.13 7.59, 226.15 0.77 M198.87 33.45 C206.17 23.39, 216.16 14.8, 227.33 -0.48 M202.86 34.03 C213.22 24.29, 221.38 16.58, 228.95 5.02 M205.25 33.4 C212.99 22.51, 221.01 13.53, 226.49 6.94 M209.7 32.25 C212.36 28.5, 217.26 23.95, 225.72 12.19 M209.58 34.41 C215.71 25.94, 220.49 19.4, 228.25 12.97 M215.64 32.16 C218.7 29.9, 220.9 24.49, 227.99 19.47 M214.47 33.49 C218.33 28.02, 222.49 24.83, 228 18.02 M220.25 33.33 C221.77 31.62, 224.33 29.88, 226.94 25.89 M220.49 33.88 C222.23 30.54, 225.68 27.5, 226.9 25.73" stroke="#ffc9c9" stroke-width="0.5" fill="none"></path><path d="M-1.51 -0.13 C72.22 -0.37, 144.65 -0.14, 228.43 1.12 M0.66 0.15 C79.94 0.61, 160.14 0.44, 227.18 -0.21 M226.08 1.73 C226.3 7.34, 228.37 12.27, 226.58 29.29 M226.5 -0.89 C227.05 8.81, 226.18 17.87, 227.49 30.18 M227.73 29.89 C170.12 33.46, 109.07 31.27, -0.6 32.25 M227.43 31.08 C141.46 32.18, 57.07 32.74, -0.21 30.05 M-1.67 29.51 C0.38 20.71, 0.65 13.66, -1.45 -1.56 M-0.1 31.26 C1.15 21.1, -0.11 9.27, 0.62 -0.25" stroke="#1e1e1e" stroke-width="1" fill="none"></path></g><g transform="translate(772.3438220454073 515.4647480822023) rotate(0 107.140625 9.199999999999818)"><text x="0" y="0" font-family="Helvetica, Segoe UI Emoji" font-size="16px" fill="#1e1e1e" text-anchor="start" style="white-space: pre;" direction="ltr" dominant-baseline="text-before-edge">Span 8 - DB call Z (Service C)</text></g><g stroke-linecap="round" transform="translate(767.7657075422394 551.6783801801448) rotate(0 113.19146360775949 23.5)"><path d="M0 0 C0 0, 0 0, 0 0 M0 0 C0 0, 0 0, 0 0 M1.82 23.74 C8.72 17.6, 14.45 7.02, 20.19 0.79 M-0.51 24.64 C8.16 14.87, 15.49 5.84, 21.24 -0.33 M1.73 45.49 C16.38 30.06, 30.14 14.16, 41.82 -0.3 M1.91 48.27 C15.57 31.78, 29.06 14.84, 42.58 -0.79 M22.59 47.84 C31.58 32.96, 46.3 23.2, 65.26 -0.58 M21 48.54 C31.57 38.09, 41.52 26.84, 64.7 0.24 M43.4 49.66 C55.28 33.06, 70.78 17.33, 83.19 -0.28 M42.82 47.2 C55.87 33.77, 68.67 17.54, 84.75 0.25 M62.33 47.81 C73.8 38.88, 83.46 25.05, 106.42 0.18 M64.53 48.57 C79.74 31.28, 94.1 14.22, 106.97 -0.77 M85.37 49.21 C99.27 32.85, 112.09 16.75, 125.64 0.51 M86.53 47.21 C96.96 35.53, 106.61 23.85, 127.83 -0.47 M108 47.17 C116.41 33.4, 128.62 21.88, 148.41 1.22 M107.61 47.8 C117.76 36.08, 128.07 24.47, 148.47 0.08 M129.63 49.04 C136.67 37.72, 147.88 26.78, 169.6 -0.27 M128.79 48.34 C143.51 29.73, 160.74 10.28, 168.58 0.07 M147.96 47.83 C156.04 35.72, 168.03 26.89, 192.38 -1 M149.08 47.38 C161.82 34.57, 171.77 20, 190.84 -0.85 M169.29 45.85 C181.69 38.05, 188.64 26.42, 209.96 -0.12 M171.33 47.12 C183.96 30.81, 198.84 15.27, 212.07 -0.64 M191.01 46.29 C201.85 38.17, 207.12 29.89, 229.32 3.8 M192.04 46.69 C200.47 38.73, 207.7 27.16, 230.42 3.33 M211.87 48.91 C216.04 43.14, 221.39 39.86, 230.45 29.18 M213.14 47.28 C217.4 43.71, 221.02 39.59, 230.03 28.3" stroke="#a5d8ff" stroke-width="2" fill="none"></path><path d="M0.94 -0.72 C87.3 0.05, 175.63 -2.34, 226.78 -1.63 M-0.65 0.22 C68.18 0.13, 138.1 0.19, 226.57 0.61 M225.88 -1.12 C224.46 9.77, 224.54 21.72, 227.03 45.96 M225.94 0.93 C227.36 18.81, 226.11 37.39, 227.13 46.02 M227.65 48.35 C171.51 49.69, 115.12 47.41, 0.41 46.71 M226.11 47.55 C138.06 44.45, 49.87 45.42, -0.81 47.36 M0.81 45.78 C-0.07 34.26, 1.15 23.84, 1.49 -0.6 M0 47.22 C0.1 34.72, 0.69 23.36, 0.09 0" stroke="#1e1e1e" stroke-width="4" fill="none"></path></g><g transform="translate(772.7657075422394 556.7783801801452) rotate(0 86.71484375 18.399999999999636)"><text x="0" y="0" font-family="Helvetica, Segoe UI Emoji" font-size="16px" fill="#1e1e1e" text-anchor="start" style="white-space: pre;" direction="ltr" dominant-baseline="text-before-edge">Span 9 - EXPLAIN Plan </text><text x="0" y="18.4" font-family="Helvetica, Segoe UI Emoji" font-size="16px" fill="#1e1e1e" text-anchor="start" style="white-space: pre;" direction="ltr" dominant-baseline="text-before-edge">(pganalyze collector)</text></g><g stroke-linecap="round"><g transform="translate(1121.107886798628 315.4374064771291) rotate(0 -59.157141426963335 133.155743518304)"><path d="M-1.16 -0.76 C-30.05 68.88, -59.9 138.01, -117.96 267.06 M0.44 0.29 C-42.73 97.74, -84.7 193.97, -118.76 267.07" stroke="#1e1e1e" stroke-width="4" fill="none"></path></g><g transform="translate(1121.107886798628 315.4374064771291) rotate(0 -59.157141426963335 133.155743518304)"><path d="M-117.94 236.14 C-118.43 245.39, -118.09 253.88, -117.11 266.85 M-115.79 237.56 C-117.68 248.41, -117.06 258.75, -118.18 266.86" stroke="#1e1e1e" stroke-width="4" fill="none"></path></g><g transform="translate(1121.107886798628 315.4374064771291) rotate(0 -59.157141426963335 133.155743518304)"><path d="M-99.27 244.66 C-104.62 251.72, -109.07 258.03, -117.11 266.85 M-97.13 246.08 C-105.78 254.03, -111.92 261.3, -118.18 266.86" stroke="#1e1e1e" stroke-width="4" fill="none"></path></g></g><mask></mask><g stroke-linecap="round"><g transform="translate(776.4819257888494 297.5957801309469) rotate(0 56.726699124922106 87.22124345847715)"><path d="M0.56 1.06 C43.17 66.47, 90.65 134.14, 112.89 173.38" stroke="#1e1e1e" stroke-width="1.5" fill="none" stroke-dasharray="8 9"></path></g><g transform="translate(776.4819257888494 297.5957801309469) rotate(0 56.726699124922106 87.22124345847715)"><path d="M89.99 155.97 C97.03 160.47, 109.74 167.95, 112.28 174.3" stroke="#1e1e1e" stroke-width="1.5" fill="none"></path></g><g transform="translate(776.4819257888494 297.5957801309469) rotate(0 56.726699124922106 87.22124345847715)"><path d="M107.45 145.2 C107.67 153.83, 113.56 165.52, 112.28 174.3" stroke="#1e1e1e" stroke-width="1.5" fill="none"></path></g></g><mask></mask><g stroke-linecap="round"><g transform="translate(648.7842588219 127.87361527472876) rotate(0 -87.41351120432182 170.27054841263134)"><path d="M0.16 -0.96 C-54.6 104.82, -105.7 205.48, -174.99 341.5" stroke="#1e1e1e" stroke-width="1.5" fill="none" stroke-dasharray="8 9"></path></g><g transform="translate(648.7842588219 127.87361527472876) rotate(0 -87.41351120432182 170.27054841263134)"><path d="M-171.07 310.11 C-173.45 322.58, -172.44 328.03, -176.98 342.24" stroke="#1e1e1e" stroke-width="1.5" fill="none"></path></g><g transform="translate(648.7842588219 127.87361527472876) rotate(0 -87.41351120432182 170.27054841263134)"><path d="M-152.78 319.42 C-160.59 329.26, -165.09 331.91, -176.98 342.24" stroke="#1e1e1e" stroke-width="1.5" fill="none"></path></g></g><mask></mask><g stroke-linecap="round"><g transform="translate(216.3058510981573 126.78127607592796) rotate(0 -83.59740043043666 151.11218630747453)"><path d="M-0.49 -1.12 C-57.02 97.69, -111.57 198.41, -166.7 303.34" stroke="#1e1e1e" stroke-width="1.5" fill="none" stroke-dasharray="8 9"></path></g><g transform="translate(216.3058510981573 126.78127607592796) rotate(0 -83.59740043043666 151.11218630747453)"><path d="M-163.31 271.93 C-165.59 281.89, -167.33 294.41, -166.91 303.48" stroke="#1e1e1e" stroke-width="1.5" fill="none"></path></g><g transform="translate(216.3058510981573 126.78127607592796) rotate(0 -83.59740043043666 151.11218630747453)"><path d="M-145.18 281.55 C-153.29 288.33, -160.94 297.71, -166.91 303.48" stroke="#1e1e1e" stroke-width="1.5" fill="none"></path></g></g><mask></mask></svg>
